<?xml version="1.0" encoding="UTF-8" standalone="no"?><svg xmlns="http://www.w3.org/2000/svg" xmlns:xlink="http://www.w3.org/1999/xlink" contentScriptType="application/ecmascript" contentStyleType="text/css" height="155px" preserveAspectRatio="none" style="width:491px;height:155px;" version="1.1" viewBox="0 0 491 155" width="491px" zoomAndPan="magnify"><defs><filter height="300%" id="f2wtjoo6ohbat" width="300%" x="-1" y="-1"><feGaussianBlur result="blurOut" stdDeviation="2.0"/><feColorMatrix in="blurOut" result="blurOut2" type="matrix" values="0 0 0 0 0 0 0 0 0 0 0 0 0 0 0 0 0 0 .4 0"/><feOffset dx="4.0" dy="4.0" in="blurOut2" result="blurOut3"/><feBlend in="SourceGraphic" in2="blurOut3" mode="normal"/></filter></defs><g><!--MD5=[31ddb61b196718dfb51737f5c67c2c13]
class ModuleInterface--><rect fill="#FFFFFF" filter="url(#f2wtjoo6ohbat)" height="137.6328" id="ModuleInterface" style="stroke: #A80036; stroke-width: 1.5;" width="473" x="7" y="7"/><ellipse cx="188.75" cy="23" fill="#ADD1B2" rx="11" ry="11" style="stroke: #A80036; stroke-width: 1.0;"/><path d="M191.7188,28.6406 Q191.1406,28.9375 190.5,29.0781 Q189.8594,29.2344 189.1563,29.2344 Q186.6563,29.2344 185.3281,27.5938 Q184.0156,25.9375 184.0156,22.8125 Q184.0156,19.6875 185.3281,18.0313 Q186.6563,16.375 189.1563,16.375 Q189.8594,16.375 190.5,16.5313 Q191.1563,16.6875 191.7188,16.9844 L191.7188,19.7031 Q191.0938,19.125 190.5,18.8594 Q189.9063,18.5781 189.2813,18.5781 Q187.9375,18.5781 187.25,19.6563 Q186.5625,20.7188 186.5625,22.8125 Q186.5625,24.9063 187.25,25.9844 Q187.9375,27.0469 189.2813,27.0469 Q189.9063,27.0469 190.5,26.7813 Q191.0938,26.5 191.7188,25.9219 L191.7188,28.6406 Z "/><text fill="#000000" font-family="sans-serif" font-size="12" lengthAdjust="spacingAndGlyphs" textLength="101" x="209.25" y="27.1543">ModuleInterface</text><line style="stroke: #A80036; stroke-width: 1.5;" x1="8" x2="479" y1="39" y2="39"/><ellipse cx="18" cy="50" fill="none" rx="3" ry="3" style="stroke: #038048; stroke-width: 1.0;"/><text fill="#000000" font-family="sans-serif" font-size="11" lengthAdjust="spacingAndGlyphs" textLength="168" x="27" y="53.2104">mi: vafmodel.ModuleInterface</text><line style="stroke: #A80036; stroke-width: 1.5;" x1="8" x2="479" y1="59.8047" y2="59.8047"/><ellipse cx="18" cy="70.8047" fill="#84BE84" rx="3" ry="3" style="stroke: #038048; stroke-width: 1.0;"/><text fill="#000000" font-family="sans-serif" font-size="11" lengthAdjust="spacingAndGlyphs" textLength="252" x="27" y="74.0151">ModuleInterface(name: str, namespace: str)</text><ellipse cx="18" cy="83.6094" fill="#84BE84" rx="3" ry="3" style="stroke: #038048; stroke-width: 1.0;"/><text fill="#000000" font-family="sans-serif" font-size="11" lengthAdjust="spacingAndGlyphs" textLength="447" x="27" y="86.8198">add_data_element(name: str, datatype: BaseTypesWrapper | AbstractVafType)</text><ellipse cx="18" cy="96.4141" fill="#84BE84" rx="3" ry="3" style="stroke: #038048; stroke-width: 1.0;"/><text fill="#000000" font-family="sans-serif" font-size="11" lengthAdjust="spacingAndGlyphs" textLength="145" x="27" y="99.6245">add_operation(name: str,</text><text fill="#000000" font-family="sans-serif" font-size="11" lengthAdjust="spacingAndGlyphs" textLength="354" x="59" y="112.4292">in_parameter: dict[str, BaseTypesWrapper | AbstractVafType],</text><text fill="#000000" font-family="sans-serif" font-size="11" lengthAdjust="spacingAndGlyphs" textLength="362" x="59" y="125.2339">out_parameter: dict[str, BaseTypesWrapper | AbstractVafType],</text><text fill="#000000" font-family="sans-serif" font-size="11" lengthAdjust="spacingAndGlyphs" textLength="372" x="59" y="138.0386">inout_parameter: dict[str, BaseTypesWrapper | AbstractVafType])</text><!--MD5=[2a9b663bed0eb7b70a3ad5664cea802e]
@startuml cac-cd_module_interface
skinparam  class {
    BackgroundColor  #FFFFFF
}

class ModuleInterface {
    + mi: vafmodel.ModuleInterface
    + ModuleInterface(name: str, namespace: str)
    + add_data_element(name: str, datatype: BaseTypesWrapper | AbstractVafType)
    + add_operation(name: str,\n\tin_parameter: dict[str, BaseTypesWrapper | AbstractVafType],\n\tout_parameter: dict[str, BaseTypesWrapper | AbstractVafType],\n\tinout_parameter: dict[str, BaseTypesWrapper | AbstractVafType])
}
@enduml

PlantUML version 1.2020.02(Sun Mar 01 11:22:07 CET 2020)
(GPL source distribution)
Java Runtime: OpenJDK Runtime Environment
JVM: OpenJDK 64-Bit Server VM
Java Version: 11.0.26+4-post-Ubuntu-1ubuntu122.04
Operating System: Linux
Default Encoding: UTF-8
Language: en
Country: null
--></g></svg>