<svg xmlns="http://www.w3.org/2000/svg" xmlns:xlink="http://www.w3.org/1999/xlink" contentStyleType="text/css" data-diagram-type="CLASS" height="343px" preserveAspectRatio="none" style="width:412px;height:343px;background:#FFFFFF;" version="1.1" viewBox="0 0 412 343" width="412px" zoomAndPan="magnify"><defs/><g><!--class Executable--><g class="entity" data-entity="Executable" data-source-line="6" data-uid="ent0002" id="entity_Executable"><rect fill="#FFFFFF" height="64.2969" rx="2.5" ry="2.5" style="stroke:#181818;stroke-width:0.5;" width="398.5381" x="7" y="7"/><ellipse cx="163.1328" cy="23" fill="#ADD1B2" rx="11" ry="11" style="stroke:#181818;stroke-width:1;"/><path d="M166.1016,28.6406 Q165.5234,28.9375 164.8828,29.0781 Q164.2422,29.2344 163.5391,29.2344 Q161.0391,29.2344 159.7109,27.5938 Q158.3984,25.9375 158.3984,22.8125 Q158.3984,19.6875 159.7109,18.0313 Q161.0391,16.375 163.5391,16.375 Q164.2422,16.375 164.8828,16.5313 Q165.5391,16.6875 166.1016,16.9844 L166.1016,19.7031 Q165.4766,19.125 164.8828,18.8594 Q164.2891,18.5781 163.6641,18.5781 Q162.3203,18.5781 161.6328,19.6563 Q160.9453,20.7188 160.9453,22.8125 Q160.9453,24.9063 161.6328,25.9844 Q162.3203,27.0469 163.6641,27.0469 Q164.2891,27.0469 164.8828,26.7813 Q165.4766,26.5 166.1016,25.9219 L166.1016,28.6406 Z " fill="#000000"/><text fill="#000000" font-family="sans-serif" font-size="14" lengthAdjust="spacing" textLength="77.7725" x="183.6328" y="27.8467">Executable</text><line style="stroke:#181818;stroke-width:0.5;" x1="8" x2="404.5381" y1="39" y2="39"/><ellipse cx="18" cy="52.6484" fill="none" rx="3" ry="3" style="stroke:#038048;stroke-width:1;"/><text fill="#000000" font-family="sans-serif" font-size="14" lengthAdjust="spacing" textLength="372.5381" x="27" y="55.9951">application_modules: list[AbstractApplicationModule]</text><line style="stroke:#181818;stroke-width:0.5;" x1="8" x2="404.5381" y1="63.2969" y2="63.2969"/></g><!--class ApplicationModule--><g class="entity" data-entity="ApplicationModule" data-source-line="10" data-uid="ent0003" id="entity_ApplicationModule"><rect fill="#FFFFFF" height="96.8906" rx="2.5" ry="2.5" style="stroke:#181818;stroke-width:0.5;" width="297.9268" x="57.5" y="131"/><ellipse cx="137.6479" cy="147" fill="#ADD1B2" rx="11" ry="11" style="stroke:#181818;stroke-width:1;"/><path d="M140.6167,152.6406 Q140.0386,152.9375 139.3979,153.0781 Q138.7573,153.2344 138.0542,153.2344 Q135.5542,153.2344 134.2261,151.5938 Q132.9136,149.9375 132.9136,146.8125 Q132.9136,143.6875 134.2261,142.0313 Q135.5542,140.375 138.0542,140.375 Q138.7573,140.375 139.3979,140.5313 Q140.0542,140.6875 140.6167,140.9844 L140.6167,143.7031 Q139.9917,143.125 139.3979,142.8594 Q138.8042,142.5781 138.1792,142.5781 Q136.8354,142.5781 136.1479,143.6563 Q135.4604,144.7188 135.4604,146.8125 Q135.4604,148.9063 136.1479,149.9844 Q136.8354,151.0469 138.1792,151.0469 Q138.8042,151.0469 139.3979,150.7813 Q139.9917,150.5 140.6167,149.9219 L140.6167,152.6406 Z " fill="#000000"/><text fill="#000000" font-family="sans-serif" font-size="14" lengthAdjust="spacing" textLength="129.1309" x="158.1479" y="151.8467">ApplicationModule</text><line style="stroke:#181818;stroke-width:0.5;" x1="58.5" x2="354.4268" y1="163" y2="163"/><ellipse cx="68.5" cy="176.6484" fill="none" rx="3" ry="3" style="stroke:#038048;stroke-width:1;"/><text fill="#000000" font-family="sans-serif" font-size="14" lengthAdjust="spacing" textLength="271.9268" x="77.5" y="179.9951">consumed_interfaces: ModuleInterface</text><ellipse cx="68.5" cy="192.9453" fill="none" rx="3" ry="3" style="stroke:#038048;stroke-width:1;"/><text fill="#000000" font-family="sans-serif" font-size="14" lengthAdjust="spacing" textLength="261.2559" x="77.5" y="196.292">provided_interfaces: ModuleInterface</text><ellipse cx="68.5" cy="209.2422" fill="none" rx="3" ry="3" style="stroke:#038048;stroke-width:1;"/><text fill="#000000" font-family="sans-serif" font-size="14" lengthAdjust="spacing" textLength="109.9492" x="77.5" y="212.5889">tasks: list[Task]</text><line style="stroke:#181818;stroke-width:0.5;" x1="58.5" x2="354.4268" y1="219.8906" y2="219.8906"/></g><!--class Task--><g class="entity" data-entity="Task" data-source-line="16" data-uid="ent0004" id="entity_Task"><rect fill="#FFFFFF" height="48" rx="2.5" ry="2.5" style="stroke:#181818;stroke-width:0.5;" width="150" x="39.5" y="288"/><ellipse cx="93.9839" cy="304" fill="#ADD1B2" rx="11" ry="11" style="stroke:#181818;stroke-width:1;"/><path d="M96.9526,309.6406 Q96.3745,309.9375 95.7339,310.0781 Q95.0933,310.2344 94.3901,310.2344 Q91.8901,310.2344 90.562,308.5938 Q89.2495,306.9375 89.2495,303.8125 Q89.2495,300.6875 90.562,299.0313 Q91.8901,297.375 94.3901,297.375 Q95.0933,297.375 95.7339,297.5313 Q96.3901,297.6875 96.9526,297.9844 L96.9526,300.7031 Q96.3276,300.125 95.7339,299.8594 Q95.1401,299.5781 94.5151,299.5781 Q93.1714,299.5781 92.4839,300.6563 Q91.7964,301.7188 91.7964,303.8125 Q91.7964,305.9063 92.4839,306.9844 Q93.1714,308.0469 94.5151,308.0469 Q95.1401,308.0469 95.7339,307.7813 Q96.3276,307.5 96.9526,306.9219 L96.9526,309.6406 Z " fill="#000000"/><text fill="#000000" font-family="sans-serif" font-size="14" lengthAdjust="spacing" textLength="32.5322" x="114.4839" y="308.8467">Task</text><line style="stroke:#181818;stroke-width:0.5;" x1="40.5" x2="188.5" y1="320" y2="320"/><line style="stroke:#181818;stroke-width:0.5;" x1="40.5" x2="188.5" y1="328" y2="328"/></g><!--class ModuleInterface--><g class="entity" data-entity="ModuleInterface" data-source-line="18" data-uid="ent0005" id="entity_ModuleInterface"><rect fill="#FFFFFF" height="48" rx="2.5" ry="2.5" style="stroke:#181818;stroke-width:0.5;" width="150" x="224.5" y="288"/><ellipse cx="241.4863" cy="304" fill="#ADD1B2" rx="11" ry="11" style="stroke:#181818;stroke-width:1;"/><path d="M244.4551,309.6406 Q243.877,309.9375 243.2363,310.0781 Q242.5957,310.2344 241.8926,310.2344 Q239.3926,310.2344 238.0645,308.5938 Q236.752,306.9375 236.752,303.8125 Q236.752,300.6875 238.0645,299.0313 Q239.3926,297.375 241.8926,297.375 Q242.5957,297.375 243.2363,297.5313 Q243.8926,297.6875 244.4551,297.9844 L244.4551,300.7031 Q243.8301,300.125 243.2363,299.8594 Q242.6426,299.5781 242.0176,299.5781 Q240.6738,299.5781 239.9863,300.6563 Q239.2988,301.7188 239.2988,303.8125 Q239.2988,305.9063 239.9863,306.9844 Q240.6738,308.0469 242.0176,308.0469 Q242.6426,308.0469 243.2363,307.7813 Q243.8301,307.5 244.4551,306.9219 L244.4551,309.6406 Z " fill="#000000"/><text fill="#000000" font-family="sans-serif" font-size="14" lengthAdjust="spacing" textLength="113.5859" x="255.9277" y="308.8467">ModuleInterface</text><line style="stroke:#181818;stroke-width:0.5;" x1="225.5" x2="373.5" y1="320" y2="320"/><line style="stroke:#181818;stroke-width:0.5;" x1="225.5" x2="373.5" y1="328" y2="328"/></g><!--reverse link Executable to ApplicationModule--><g class="link" data-entity-1="Executable" data-entity-2="ApplicationModule" data-source-line="20" data-uid="lnk6" id="link_Executable_ApplicationModule"><path codeLine="20" d="M206.5,83.08 C206.5,100.71 206.5,111.13 206.5,130.93" fill="none" id="Executable-backto-ApplicationModule" style="stroke:#181818;stroke-width:1;"/><polygon fill="none" points="206.5,71.08,202.5,77.08,206.5,83.08,210.5,77.08,206.5,71.08" style="stroke:#181818;stroke-width:1;"/><text fill="#000000" font-family="sans-serif" font-size="13" lengthAdjust="spacing" textLength="23.0356" x="181.1794" y="91.2934">1..*</text><text fill="#000000" font-family="sans-serif" font-size="13" lengthAdjust="spacing" textLength="23.0356" x="181.8189" y="119.7794">0..*</text></g><!--reverse link ApplicationModule to Task--><g class="link" data-entity-1="ApplicationModule" data-entity-2="Task" data-source-line="21" data-uid="lnk7" id="link_ApplicationModule_Task"><path codeLine="21" d="M165.8495,238.1605 C151.5995,258.3905 142.56,271.2 130.95,287.66" fill="none" id="ApplicationModule-backto-Task" style="stroke:#181818;stroke-width:1;"/><polygon fill="none" points="172.76,228.35,166.0346,230.9517,165.8495,238.1605,172.5749,235.5587,172.76,228.35" style="stroke:#181818;stroke-width:1;"/><text fill="#000000" font-family="sans-serif" font-size="13" lengthAdjust="spacing" textLength="23.0356" x="143.6882" y="248.0052">1..*</text><text fill="#000000" font-family="sans-serif" font-size="13" lengthAdjust="spacing" textLength="23.0356" x="109.1609" y="276.9821">0..*</text></g><!--reverse link ApplicationModule to ModuleInterface--><g class="link" data-entity-1="ApplicationModule" data-entity-2="ModuleInterface" data-source-line="22" data-uid="lnk8" id="link_ApplicationModule_ModuleInterface"><path codeLine="22" d="M247.5621,238.1239 C261.9721,258.3539 271.14,271.2 282.87,287.66" fill="none" id="ApplicationModule-backto-ModuleInterface" style="stroke:#181818;stroke-width:1;"/><polygon fill="none" points="240.6,228.35,240.823,235.5577,247.5621,238.1239,247.339,230.9163,240.6,228.35" style="stroke:#181818;stroke-width:1;"/><text fill="#000000" font-family="sans-serif" font-size="13" lengthAdjust="spacing" textLength="23.0356" x="220.6442" y="248.0052">1..*</text><text fill="#000000" font-family="sans-serif" font-size="13" lengthAdjust="spacing" textLength="23.0356" x="253.0177" y="276.9821">0..*</text></g><!--SRC=[ZOy_2y8m4CNtV8gZRegb7LpSL1GSkWaE8kLCeeQcIScb8eZVtVwnLkpYJPVSxzwzHvao1JhC8L5cfP5ehuI_GZoB67rcmEi9F1XKjKIUNPmjZLXPRHt0QDCKUpBMSkkxvAN7avRlbGaMXLOSlR8cpQqejQGvQ4N-i3YHTyZzeYUI1ZZsUeDP9ykjeJAN8bN6ItT6NiksoBRxQSd2sPiI_v0UAUlCxQh-oqVzxFhVNVOLEeZ3S1o0dKuXY9fsa80DCmstcdl_W3zcNW00]--></g></svg>