<?xml version="1.0" encoding="UTF-8" standalone="no"?><svg xmlns="http://www.w3.org/2000/svg" xmlns:xlink="http://www.w3.org/1999/xlink" contentScriptType="application/ecmascript" contentStyleType="text/css" height="664px" preserveAspectRatio="none" style="width:1262px;height:664px;" version="1.1" viewBox="0 0 1262 664" width="1262px" zoomAndPan="magnify"><defs><filter height="300%" id="f1lk85ser7v77" width="300%" x="-1" y="-1"><feGaussianBlur result="blurOut" stdDeviation="2.0"/><feColorMatrix in="blurOut" result="blurOut2" type="matrix" values="0 0 0 0 0 0 0 0 0 0 0 0 0 0 0 0 0 0 .4 0"/><feOffset dx="4.0" dy="4.0" in="blurOut2" result="blurOut3"/><feBlend in="SourceGraphic" in2="blurOut3" mode="normal"/></filter></defs><g><!--MD5=[a2fc906216f66dae14bef71e22e0af64]
class AbstractVafType--><rect fill="#FFFFFF" filter="url(#f1lk85ser7v77)" height="60.8047" id="AbstractVafType" style="stroke: #A80036; stroke-width: 1.5;" width="198" x="300.5" y="8"/><ellipse cx="344.3" cy="24" fill="#A9DCDF" rx="11" ry="11" style="stroke: #A80036; stroke-width: 1.0;"/><path d="M344.4094,19.3438 L343.2531,24.4219 L345.5813,24.4219 L344.4094,19.3438 Z M342.925,17.1094 L345.9094,17.1094 L349.2688,29.5 L346.8156,29.5 L346.05,26.4375 L342.7688,26.4375 L342.0188,29.5 L339.5813,29.5 L342.925,17.1094 Z "/><text fill="#000000" font-family="sans-serif" font-size="12" font-style="italic" lengthAdjust="spacingAndGlyphs" textLength="102" x="364.7" y="28.1543">AbstractVafType</text><line style="stroke: #A80036; stroke-width: 1.5;" x1="301.5" x2="497.5" y1="40" y2="40"/><ellipse cx="311.5" cy="51" fill="none" rx="3" ry="3" style="stroke: #038048; stroke-width: 1.0;"/><text fill="#000000" font-family="sans-serif" font-size="11" lengthAdjust="spacingAndGlyphs" textLength="172" x="320.5" y="54.2104">data_type: vafmodel.DataType</text><line style="stroke: #A80036; stroke-width: 1.5;" x1="301.5" x2="497.5" y1="60.8047" y2="60.8047"/><!--MD5=[eb0f4986160aea42d9ece72995cb24c7]
class Struct--><rect fill="#FFFFFF" filter="url(#f1lk85ser7v77)" height="86.4141" id="Struct" style="stroke: #A80036; stroke-width: 1.5;" width="467" x="166" y="129"/><ellipse cx="376.25" cy="145" fill="#ADD1B2" rx="11" ry="11" style="stroke: #A80036; stroke-width: 1.0;"/><path d="M379.2188,150.6406 Q378.6406,150.9375 378,151.0781 Q377.3594,151.2344 376.6563,151.2344 Q374.1563,151.2344 372.8281,149.5938 Q371.5156,147.9375 371.5156,144.8125 Q371.5156,141.6875 372.8281,140.0313 Q374.1563,138.375 376.6563,138.375 Q377.3594,138.375 378,138.5313 Q378.6563,138.6875 379.2188,138.9844 L379.2188,141.7031 Q378.5938,141.125 378,140.8594 Q377.4063,140.5781 376.7813,140.5781 Q375.4375,140.5781 374.75,141.6563 Q374.0625,142.7188 374.0625,144.8125 Q374.0625,146.9063 374.75,147.9844 Q375.4375,149.0469 376.7813,149.0469 Q377.4063,149.0469 378,148.7813 Q378.5938,148.5 379.2188,147.9219 L379.2188,150.6406 Z "/><text fill="#000000" font-family="sans-serif" font-size="12" lengthAdjust="spacingAndGlyphs" textLength="38" x="396.75" y="149.1543">Struct</text><line style="stroke: #A80036; stroke-width: 1.5;" x1="167" x2="632" y1="161" y2="161"/><ellipse cx="177" cy="172" fill="none" rx="3" ry="3" style="stroke: #038048; stroke-width: 1.0;"/><text fill="#000000" font-family="sans-serif" font-size="11" lengthAdjust="spacingAndGlyphs" textLength="182" x="186" y="175.2104">internal_model: vafmodel.Struct</text><line style="stroke: #A80036; stroke-width: 1.5;" x1="167" x2="632" y1="181.8047" y2="181.8047"/><ellipse cx="177" cy="192.8047" fill="#84BE84" rx="3" ry="3" style="stroke: #038048; stroke-width: 1.0;"/><text fill="#000000" font-family="sans-serif" font-size="11" lengthAdjust="spacingAndGlyphs" textLength="441" x="186" y="196.0151">Struct(name: str, namespace: str, sub_elements: list[vafmodel.SubElement])</text><ellipse cx="177" cy="205.6094" fill="#84BE84" rx="3" ry="3" style="stroke: #038048; stroke-width: 1.0;"/><text fill="#000000" font-family="sans-serif" font-size="11" lengthAdjust="spacingAndGlyphs" textLength="437" x="186" y="208.8198">add_subelement(name: str, datatype: BaseTypesWrapper | AbstractVafType)</text><!--MD5=[ea775af43a0da7cb543d6bee4ab62c40]
class Vector--><rect fill="#FFFFFF" filter="url(#f1lk85ser7v77)" height="86.4141" id="Vector" style="stroke: #A80036; stroke-width: 1.5;" width="495" x="95" y="275"/><ellipse cx="317.75" cy="291" fill="#ADD1B2" rx="11" ry="11" style="stroke: #A80036; stroke-width: 1.0;"/><path d="M320.7188,296.6406 Q320.1406,296.9375 319.5,297.0781 Q318.8594,297.2344 318.1563,297.2344 Q315.6563,297.2344 314.3281,295.5938 Q313.0156,293.9375 313.0156,290.8125 Q313.0156,287.6875 314.3281,286.0313 Q315.6563,284.375 318.1563,284.375 Q318.8594,284.375 319.5,284.5313 Q320.1563,284.6875 320.7188,284.9844 L320.7188,287.7031 Q320.0938,287.125 319.5,286.8594 Q318.9063,286.5781 318.2813,286.5781 Q316.9375,286.5781 316.25,287.6563 Q315.5625,288.7188 315.5625,290.8125 Q315.5625,292.9063 316.25,293.9844 Q316.9375,295.0469 318.2813,295.0469 Q318.9063,295.0469 319.5,294.7813 Q320.0938,294.5 320.7188,293.9219 L320.7188,296.6406 Z "/><text fill="#000000" font-family="sans-serif" font-size="12" lengthAdjust="spacingAndGlyphs" textLength="41" x="338.25" y="295.1543">Vector</text><line style="stroke: #A80036; stroke-width: 1.5;" x1="96" x2="589" y1="307" y2="307"/><ellipse cx="106" cy="318" fill="none" rx="3" ry="3" style="stroke: #038048; stroke-width: 1.0;"/><text fill="#000000" font-family="sans-serif" font-size="11" lengthAdjust="spacingAndGlyphs" textLength="184" x="115" y="321.2104">internal_model: vafmodel.Vector</text><line style="stroke: #A80036; stroke-width: 1.5;" x1="96" x2="589" y1="327.8047" y2="327.8047"/><ellipse cx="106" cy="338.8047" fill="#84BE84" rx="3" ry="3" style="stroke: #038048; stroke-width: 1.0;"/><text fill="#000000" font-family="sans-serif" font-size="11" lengthAdjust="spacingAndGlyphs" textLength="465" x="115" y="342.0151">Vector(namespace: str, datatype: BaseTypesWrapper | AbstractVafType, size: int,</text><text fill="#000000" font-family="sans-serif" font-size="11" lengthAdjust="spacingAndGlyphs" textLength="60" x="115" y="354.8198">name: str)</text><!--MD5=[9df70cf33be424c1b8543b3f439cae89]
class String--><rect fill="#FFFFFF" filter="url(#f1lk85ser7v77)" height="73.6094" id="String" style="stroke: #A80036; stroke-width: 1.5;" width="222" x="865.5" y="135"/><ellipse cx="953.75" cy="151" fill="#ADD1B2" rx="11" ry="11" style="stroke: #A80036; stroke-width: 1.0;"/><path d="M956.7188,156.6406 Q956.1406,156.9375 955.5,157.0781 Q954.8594,157.2344 954.1563,157.2344 Q951.6563,157.2344 950.3281,155.5938 Q949.0156,153.9375 949.0156,150.8125 Q949.0156,147.6875 950.3281,146.0313 Q951.6563,144.375 954.1563,144.375 Q954.8594,144.375 955.5,144.5313 Q956.1563,144.6875 956.7188,144.9844 L956.7188,147.7031 Q956.0938,147.125 955.5,146.8594 Q954.9063,146.5781 954.2813,146.5781 Q952.9375,146.5781 952.25,147.6563 Q951.5625,148.7188 951.5625,150.8125 Q951.5625,152.9063 952.25,153.9844 Q952.9375,155.0469 954.2813,155.0469 Q954.9063,155.0469 955.5,154.7813 Q956.0938,154.5 956.7188,153.9219 L956.7188,156.6406 Z "/><text fill="#000000" font-family="sans-serif" font-size="12" lengthAdjust="spacingAndGlyphs" textLength="37" x="974.25" y="155.1543">String</text><line style="stroke: #A80036; stroke-width: 1.5;" x1="866.5" x2="1086.5" y1="167" y2="167"/><ellipse cx="876.5" cy="178" fill="none" rx="3" ry="3" style="stroke: #038048; stroke-width: 1.0;"/><text fill="#000000" font-family="sans-serif" font-size="11" lengthAdjust="spacingAndGlyphs" textLength="182" x="885.5" y="181.2104">internal_model: vafmodel.String</text><line style="stroke: #A80036; stroke-width: 1.5;" x1="866.5" x2="1086.5" y1="187.8047" y2="187.8047"/><ellipse cx="876.5" cy="198.8047" fill="#84BE84" rx="3" ry="3" style="stroke: #038048; stroke-width: 1.0;"/><text fill="#000000" font-family="sans-serif" font-size="11" lengthAdjust="spacingAndGlyphs" textLength="196" x="885.5" y="202.0151">String(name: str, namespace: str)</text><!--MD5=[bb5d160990469bd4f965063233933f15]
class TypeRef--><rect fill="#FFFFFF" filter="url(#f1lk85ser7v77)" height="73.6094" id="TypeRef" style="stroke: #A80036; stroke-width: 1.5;" width="512" x="739.5" y="281"/><ellipse cx="966.75" cy="297" fill="#ADD1B2" rx="11" ry="11" style="stroke: #A80036; stroke-width: 1.0;"/><path d="M969.7188,302.6406 Q969.1406,302.9375 968.5,303.0781 Q967.8594,303.2344 967.1563,303.2344 Q964.6563,303.2344 963.3281,301.5938 Q962.0156,299.9375 962.0156,296.8125 Q962.0156,293.6875 963.3281,292.0313 Q964.6563,290.375 967.1563,290.375 Q967.8594,290.375 968.5,290.5313 Q969.1563,290.6875 969.7188,290.9844 L969.7188,293.7031 Q969.0938,293.125 968.5,292.8594 Q967.9063,292.5781 967.2813,292.5781 Q965.9375,292.5781 965.25,293.6563 Q964.5625,294.7188 964.5625,296.8125 Q964.5625,298.9063 965.25,299.9844 Q965.9375,301.0469 967.2813,301.0469 Q967.9063,301.0469 968.5,300.7813 Q969.0938,300.5 969.7188,299.9219 L969.7188,302.6406 Z "/><text fill="#000000" font-family="sans-serif" font-size="12" lengthAdjust="spacingAndGlyphs" textLength="49" x="987.25" y="301.1543">TypeRef</text><line style="stroke: #A80036; stroke-width: 1.5;" x1="740.5" x2="1250.5" y1="313" y2="313"/><ellipse cx="750.5" cy="324" fill="none" rx="3" ry="3" style="stroke: #038048; stroke-width: 1.0;"/><text fill="#000000" font-family="sans-serif" font-size="11" lengthAdjust="spacingAndGlyphs" textLength="193" x="759.5" y="327.2104">internal_model: vafmodel.TypeRef</text><line style="stroke: #A80036; stroke-width: 1.5;" x1="740.5" x2="1250.5" y1="333.8047" y2="333.8047"/><ellipse cx="750.5" cy="344.8047" fill="#84BE84" rx="3" ry="3" style="stroke: #038048; stroke-width: 1.0;"/><text fill="#000000" font-family="sans-serif" font-size="11" lengthAdjust="spacingAndGlyphs" textLength="486" x="759.5" y="348.0151">TypeRef(name: str, namespace: str, datatype: BaseTypesWrapper | AbstractVafType)</text><!--MD5=[4dfc6a72b8dd60daa1b635d583ff79da]
class Map--><rect fill="#FFFFFF" filter="url(#f1lk85ser7v77)" height="86.4141" id="Map" style="stroke: #A80036; stroke-width: 1.5;" width="524" x="584.5" y="421"/><ellipse cx="829.25" cy="437" fill="#ADD1B2" rx="11" ry="11" style="stroke: #A80036; stroke-width: 1.0;"/><path d="M832.2188,442.6406 Q831.6406,442.9375 831,443.0781 Q830.3594,443.2344 829.6563,443.2344 Q827.1563,443.2344 825.8281,441.5938 Q824.5156,439.9375 824.5156,436.8125 Q824.5156,433.6875 825.8281,432.0313 Q827.1563,430.375 829.6563,430.375 Q830.3594,430.375 831,430.5313 Q831.6563,430.6875 832.2188,430.9844 L832.2188,433.7031 Q831.5938,433.125 831,432.8594 Q830.4063,432.5781 829.7813,432.5781 Q828.4375,432.5781 827.75,433.6563 Q827.0625,434.7188 827.0625,436.8125 Q827.0625,438.9063 827.75,439.9844 Q828.4375,441.0469 829.7813,441.0469 Q830.4063,441.0469 831,440.7813 Q831.5938,440.5 832.2188,439.9219 L832.2188,442.6406 Z "/><text fill="#000000" font-family="sans-serif" font-size="12" lengthAdjust="spacingAndGlyphs" textLength="26" x="849.75" y="441.1543">Map</text><line style="stroke: #A80036; stroke-width: 1.5;" x1="585.5" x2="1107.5" y1="453" y2="453"/><ellipse cx="595.5" cy="464" fill="none" rx="3" ry="3" style="stroke: #038048; stroke-width: 1.0;"/><text fill="#000000" font-family="sans-serif" font-size="11" lengthAdjust="spacingAndGlyphs" textLength="171" x="604.5" y="467.2104">internal_model: vafmodel.Map</text><line style="stroke: #A80036; stroke-width: 1.5;" x1="585.5" x2="1107.5" y1="473.8047" y2="473.8047"/><ellipse cx="595.5" cy="484.8047" fill="#84BE84" rx="3" ry="3" style="stroke: #038048; stroke-width: 1.0;"/><text fill="#000000" font-family="sans-serif" font-size="11" lengthAdjust="spacingAndGlyphs" textLength="498" x="604.5" y="488.0151">Map(name: str, namespace: str, key_type: BaseTypesWrapper | AbstractVafType, value</text><text fill="#000000" font-family="sans-serif" font-size="11" lengthAdjust="spacingAndGlyphs" textLength="256" x="604.5" y="500.8198">_type: BaseTypesWrapper | AbstractVafType)</text><!--MD5=[99f32fa4e73f6681c1a0ac5117bd3ce1]
class Array--><rect fill="#FFFFFF" filter="url(#f1lk85ser7v77)" height="86.4141" id="Array" style="stroke: #A80036; stroke-width: 1.5;" width="525" x="24" y="421"/><ellipse cx="266.25" cy="437" fill="#ADD1B2" rx="11" ry="11" style="stroke: #A80036; stroke-width: 1.0;"/><path d="M269.2188,442.6406 Q268.6406,442.9375 268,443.0781 Q267.3594,443.2344 266.6563,443.2344 Q264.1563,443.2344 262.8281,441.5938 Q261.5156,439.9375 261.5156,436.8125 Q261.5156,433.6875 262.8281,432.0313 Q264.1563,430.375 266.6563,430.375 Q267.3594,430.375 268,430.5313 Q268.6563,430.6875 269.2188,430.9844 L269.2188,433.7031 Q268.5938,433.125 268,432.8594 Q267.4063,432.5781 266.7813,432.5781 Q265.4375,432.5781 264.75,433.6563 Q264.0625,434.7188 264.0625,436.8125 Q264.0625,438.9063 264.75,439.9844 Q265.4375,441.0469 266.7813,441.0469 Q267.4063,441.0469 268,440.7813 Q268.5938,440.5 269.2188,439.9219 L269.2188,442.6406 Z "/><text fill="#000000" font-family="sans-serif" font-size="12" lengthAdjust="spacingAndGlyphs" textLength="32" x="286.75" y="441.1543">Array</text><line style="stroke: #A80036; stroke-width: 1.5;" x1="25" x2="548" y1="453" y2="453"/><ellipse cx="35" cy="464" fill="none" rx="3" ry="3" style="stroke: #038048; stroke-width: 1.0;"/><text fill="#000000" font-family="sans-serif" font-size="11" lengthAdjust="spacingAndGlyphs" textLength="178" x="44" y="467.2104">internal_model: vafmodel.Array</text><line style="stroke: #A80036; stroke-width: 1.5;" x1="25" x2="548" y1="473.8047" y2="473.8047"/><ellipse cx="35" cy="484.8047" fill="#84BE84" rx="3" ry="3" style="stroke: #038048; stroke-width: 1.0;"/><text fill="#000000" font-family="sans-serif" font-size="11" lengthAdjust="spacingAndGlyphs" textLength="499" x="44" y="488.0151">Array(namespace: str, datatype: BaseTypesWrapper | AbstractVafType, size: int, name:</text><text fill="#000000" font-family="sans-serif" font-size="11" lengthAdjust="spacingAndGlyphs" textLength="20" x="44" y="500.8198">str)</text><!--MD5=[4298d0dcfa55ecd56071adba7add2166]
class Enum--><rect fill="#FFFFFF" filter="url(#f1lk85ser7v77)" height="86.4141" id="Enum" style="stroke: #A80036; stroke-width: 1.5;" width="423" x="197" y="567"/><ellipse cx="386.75" cy="583" fill="#ADD1B2" rx="11" ry="11" style="stroke: #A80036; stroke-width: 1.0;"/><path d="M389.7188,588.6406 Q389.1406,588.9375 388.5,589.0781 Q387.8594,589.2344 387.1563,589.2344 Q384.6563,589.2344 383.3281,587.5938 Q382.0156,585.9375 382.0156,582.8125 Q382.0156,579.6875 383.3281,578.0313 Q384.6563,576.375 387.1563,576.375 Q387.8594,576.375 388.5,576.5313 Q389.1563,576.6875 389.7188,576.9844 L389.7188,579.7031 Q389.0938,579.125 388.5,578.8594 Q387.9063,578.5781 387.2813,578.5781 Q385.9375,578.5781 385.25,579.6563 Q384.5625,580.7188 384.5625,582.8125 Q384.5625,584.9063 385.25,585.9844 Q385.9375,587.0469 387.2813,587.0469 Q387.9063,587.0469 388.5,586.7813 Q389.0938,586.5 389.7188,585.9219 L389.7188,588.6406 Z "/><text fill="#000000" font-family="sans-serif" font-size="12" lengthAdjust="spacingAndGlyphs" textLength="35" x="407.25" y="587.1543">Enum</text><line style="stroke: #A80036; stroke-width: 1.5;" x1="198" x2="619" y1="599" y2="599"/><ellipse cx="208" cy="610" fill="none" rx="3" ry="3" style="stroke: #038048; stroke-width: 1.0;"/><text fill="#000000" font-family="sans-serif" font-size="11" lengthAdjust="spacingAndGlyphs" textLength="198" x="217" y="613.2104">internal_model: vafmodel.VafEnum</text><line style="stroke: #A80036; stroke-width: 1.5;" x1="198" x2="619" y1="619.8047" y2="619.8047"/><ellipse cx="208" cy="630.8047" fill="#84BE84" rx="3" ry="3" style="stroke: #038048; stroke-width: 1.0;"/><text fill="#000000" font-family="sans-serif" font-size="11" lengthAdjust="spacingAndGlyphs" textLength="397" x="217" y="634.0151">Enum(name: str, namespace: str, literals: list[vafmodel.EnumLiteral])</text><ellipse cx="208" cy="643.6094" fill="#84BE84" rx="3" ry="3" style="stroke: #038048; stroke-width: 1.0;"/><text fill="#000000" font-family="sans-serif" font-size="11" lengthAdjust="spacingAndGlyphs" textLength="175" x="217" y="646.8198">add_entry(label: str, value: int)</text><!--MD5=[013009c2a0b74d8ad34a6a3e0336ac9c]
reverse link AbstractVafType to Struct--><path d="M399.5,89.13 C399.5,89.13 399.5,128.87 399.5,128.87 " fill="none" id="AbstractVafType&lt;-Struct" style="stroke: #A80036; stroke-width: 1.0;"/><polygon fill="none" points="392.5,89.13,399.5,69.13,406.5,89.13,392.5,89.13" style="stroke: #A80036; stroke-width: 1.0;"/><!--MD5=[b4d875b56df262c55e5e40382f2c52a5]
reverse link AbstractVafType to Vector--><path d="M280.48,54 C280.48,54 130.5,54 130.5,54 C130.5,54 130.5,200.19 130.5,275 " fill="none" id="AbstractVafType&lt;-Vector" style="stroke: #A80036; stroke-width: 1.0;"/><polygon fill="none" points="280.48,47,300.48,54,280.48,61,280.48,47" style="stroke: #A80036; stroke-width: 1.0;"/><!--MD5=[9d6aa8fb296884c38b92b596158ee77c]
reverse link AbstractVafType to String--><path d="M518.69,24 C518.69,24 976.5,24 976.5,24 C976.5,24 976.5,90.81 976.5,134.65 " fill="none" id="AbstractVafType&lt;-String" style="stroke: #A80036; stroke-width: 1.0;"/><polygon fill="none" points="518.69,31,498.69,24,518.69,17,518.69,31" style="stroke: #A80036; stroke-width: 1.0;"/><!--MD5=[4b5ece495ff9d603d2756682afd75e38]
reverse link AbstractVafType to TypeRef--><path d="M518.6,39 C518.6,39 802.5,39 802.5,39 C802.5,39 802.5,205.06 802.5,280.95 " fill="none" id="AbstractVafType&lt;-TypeRef" style="stroke: #A80036; stroke-width: 1.0;"/><polygon fill="none" points="518.6,46,498.6,39,518.6,32,518.6,46" style="stroke: #A80036; stroke-width: 1.0;"/><!--MD5=[ca30d59a893031839bf2451b77866a72]
reverse link AbstractVafType to Map--><path d="M518.58,54 C518.58,54 686.25,54 686.25,54 C686.25,54 686.25,315.63 686.25,420.9 " fill="none" id="AbstractVafType&lt;-Map" style="stroke: #A80036; stroke-width: 1.0;"/><polygon fill="none" points="518.58,61,498.58,54,518.58,47,518.58,61" style="stroke: #A80036; stroke-width: 1.0;"/><!--MD5=[d2cf894cce83c7ccc30622c7973cfa27]
reverse link AbstractVafType to Array--><path d="M280.24,39 C280.24,39 59.5,39 59.5,39 C59.5,39 59.5,312.86 59.5,420.91 " fill="none" id="AbstractVafType&lt;-Array" style="stroke: #A80036; stroke-width: 1.0;"/><polygon fill="none" points="280.24,32,300.24,39,280.24,46,280.24,32" style="stroke: #A80036; stroke-width: 1.0;"/><!--MD5=[5f9a1d526647954d297912eb8d922fbd]
reverse link AbstractVafType to Enum--><path d="M280.46,24 C280.46,24 6,24 6,24 C6,24 6,610 6,610 C6,610 99.86,610 196.94,610 " fill="none" id="AbstractVafType&lt;-Enum" style="stroke: #A80036; stroke-width: 1.0;"/><polygon fill="none" points="280.46,17,300.46,24,280.46,31,280.46,17" style="stroke: #A80036; stroke-width: 1.0;"/><!--MD5=[5346a22ebda49c29b9a77fafe003be0a]
link Struct to Vector--><!--MD5=[6ed712873cb0fae9851b7bbbf7690df5]
link Vector to Array--><!--MD5=[c7448a721a48e1eb227c5011c6b680dc]
link String to TypeRef--><!--MD5=[1ba4871fe6a587028a64e6493466ddb7]
link TypeRef to Map--><!--MD5=[239a5810e09c404e1e38b7b8f2c41397]
link Map to Enum--><!--MD5=[6a229823fd0116bb683e6cbb07730a23]
@startuml cac-cd_datatypes
skinparam Linetype ortho
skinparam WrapWidth 500
skinparam  class {
    BackgroundColor  #FFFFFF
}

abstract class AbstractVafType {
    + data_type: vafmodel.DataType
}

class Struct {
    + Struct(name: str, namespace: str, sub_elements: list[vafmodel.SubElement])
    + add_subelement(name: str, datatype: BaseTypesWrapper | AbstractVafType)
    + internal_model: vafmodel.Struct
}

class Vector {
    + Vector(namespace: str, datatype: BaseTypesWrapper | AbstractVafType, size: int, name: str)
    + internal_model: vafmodel.Vector
}

class String {
    + String(name: str, namespace: str)
    + internal_model: vafmodel.String
}

class TypeRef {
    + TypeRef(name: str, namespace: str, datatype: BaseTypesWrapper | AbstractVafType)
    + internal_model: vafmodel.TypeRef
}

class Map {
    + Map(name: str, namespace: str, key_type: BaseTypesWrapper | AbstractVafType, value_type: BaseTypesWrapper | AbstractVafType)
    + internal_model: vafmodel.Map
}

class Array {
    + Array(namespace: str, datatype: BaseTypesWrapper | AbstractVafType, size: int, name: str)
    + internal_model: vafmodel.Array
}

class Enum {
    + Enum(name: str, namespace: str, literals: list[vafmodel.EnumLiteral])
    + add_entry(label: str, value: int)
    + internal_model: vafmodel.VafEnum
}

AbstractVafType <|- - Struct
AbstractVafType <|- - Vector
AbstractVafType <|- - String
AbstractVafType <|- - TypeRef
AbstractVafType <|- - Map
AbstractVafType <|- - Array
AbstractVafType <|- - Enum

Struct -[hidden]d- Vector
Vector -[hidden]d- Array

String -[hidden]d- TypeRef
TypeRef -[hidden]d- Map
Map -[hidden]d- Enum
@enduml

PlantUML version 1.2020.02(Sun Mar 01 11:22:07 CET 2020)
(GPL source distribution)
Java Runtime: OpenJDK Runtime Environment
JVM: OpenJDK 64-Bit Server VM
Java Version: 11.0.26+4-post-Ubuntu-1ubuntu122.04
Operating System: Linux
Default Encoding: UTF-8
Language: en
Country: null
--></g></svg>