<svg xmlns="http://www.w3.org/2000/svg" xmlns:xlink="http://www.w3.org/1999/xlink" contentStyleType="text/css" data-diagram-type="CLASS" height="737px" preserveAspectRatio="none" style="width:1220px;height:737px;background:#FFFFFF;" version="1.1" viewBox="0 0 1220 737" width="1220px" zoomAndPan="magnify"><defs/><g><!--class AbstractVafType--><g class="entity" data-entity="AbstractVafType" data-source-line="7" data-uid="ent0002" id="entity_AbstractVafType"><rect fill="#FFFFFF" height="64.2969" rx="2.5" ry="2.5" style="stroke:#181818;stroke-width:0.5;" width="242.5762" x="265.5" y="7"/><ellipse cx="324.4429" cy="23" fill="#A9DCDF" rx="11" ry="11" style="stroke:#181818;stroke-width:1;"/><path d="M324.5522,18.3438 L323.396,23.4219 L325.7241,23.4219 L324.5522,18.3438 Z M323.0679,16.1094 L326.0522,16.1094 L329.4116,28.5 L326.9585,28.5 L326.1929,25.4375 L322.9116,25.4375 L322.1616,28.5 L319.7241,28.5 L323.0679,16.1094 Z " fill="#000000"/><text fill="#000000" font-family="sans-serif" font-size="14" font-style="italic" lengthAdjust="spacing" textLength="116.1904" x="344.9429" y="27.8467">AbstractVafType</text><line style="stroke:#181818;stroke-width:0.5;" x1="266.5" x2="507.0762" y1="39" y2="39"/><ellipse cx="276.5" cy="52.6484" fill="none" rx="3" ry="3" style="stroke:#038048;stroke-width:1;"/><text fill="#000000" font-family="sans-serif" font-size="14" lengthAdjust="spacing" textLength="74.5254" x="285.5" y="55.9951">data_type:</text><text fill="#000000" font-family="sans-serif" font-size="14" lengthAdjust="spacing" textLength="4.4502" x="360.0254" y="55.9951">&#160;</text><text fill="#000000" font-family="sans-serif" font-size="14" lengthAdjust="spacing" textLength="137.6006" x="364.4756" y="55.9951">vafmodel.DataType</text><line style="stroke:#181818;stroke-width:0.5;" x1="266.5" x2="507.0762" y1="63.2969" y2="63.2969"/></g><!--class Struct--><g class="entity" data-entity="Struct" data-source-line="11" data-uid="ent0003" id="entity_Struct"><rect fill="#FFFFFF" height="129.4844" rx="2.5" ry="2.5" style="stroke:#181818;stroke-width:0.5;" width="441.0918" x="166.5" y="131"/><ellipse cx="361.7002" cy="147" fill="#ADD1B2" rx="11" ry="11" style="stroke:#181818;stroke-width:1;"/><path d="M364.6689,152.6406 Q364.0908,152.9375 363.4502,153.0781 Q362.8096,153.2344 362.1064,153.2344 Q359.6064,153.2344 358.2783,151.5938 Q356.9658,149.9375 356.9658,146.8125 Q356.9658,143.6875 358.2783,142.0313 Q359.6064,140.375 362.1064,140.375 Q362.8096,140.375 363.4502,140.5313 Q364.1064,140.6875 364.6689,140.9844 L364.6689,143.7031 Q364.0439,143.125 363.4502,142.8594 Q362.8564,142.5781 362.2314,142.5781 Q360.8877,142.5781 360.2002,143.6563 Q359.5127,144.7188 359.5127,146.8125 Q359.5127,148.9063 360.2002,149.9844 Q360.8877,151.0469 362.2314,151.0469 Q362.8564,151.0469 363.4502,150.7813 Q364.0439,150.5 364.6689,149.9219 L364.6689,152.6406 Z " fill="#000000"/><text fill="#000000" font-family="sans-serif" font-size="14" lengthAdjust="spacing" textLength="42.1914" x="382.2002" y="151.8467">Struct</text><line style="stroke:#181818;stroke-width:0.5;" x1="167.5" x2="606.5918" y1="163" y2="163"/><ellipse cx="177.5" cy="176.6484" fill="none" rx="3" ry="3" style="stroke:#038048;stroke-width:1;"/><text fill="#000000" font-family="sans-serif" font-size="14" lengthAdjust="spacing" textLength="109.2725" x="186.5" y="179.9951">internal_model:</text><text fill="#000000" font-family="sans-serif" font-size="14" lengthAdjust="spacing" textLength="4.4502" x="295.7725" y="179.9951">&#160;</text><text fill="#000000" font-family="sans-serif" font-size="14" lengthAdjust="spacing" textLength="112.0273" x="300.2227" y="179.9951">vafmodel.Struct</text><line style="stroke:#181818;stroke-width:0.5;" x1="167.5" x2="606.5918" y1="187.2969" y2="187.2969"/><ellipse cx="177.5" cy="209.0938" fill="#84BE84" rx="3" ry="3" style="stroke:#038048;stroke-width:1;"/><text fill="#000000" font-family="sans-serif" font-size="14" lengthAdjust="spacing" textLength="92.0732" x="186.5" y="204.292">Struct(name:</text><text fill="#000000" font-family="sans-serif" font-size="14" lengthAdjust="spacing" textLength="4.4502" x="278.5732" y="204.292">&#160;</text><text fill="#000000" font-family="sans-serif" font-size="14" lengthAdjust="spacing" textLength="22.9893" x="283.0234" y="204.292">str,</text><text fill="#000000" font-family="sans-serif" font-size="14" lengthAdjust="spacing" textLength="4.4502" x="306.0127" y="204.292">&#160;</text><text fill="#000000" font-family="sans-serif" font-size="14" lengthAdjust="spacing" textLength="85.4902" x="310.4629" y="204.292">namespace:</text><text fill="#000000" font-family="sans-serif" font-size="14" lengthAdjust="spacing" textLength="4.4502" x="395.9531" y="204.292">&#160;</text><text fill="#000000" font-family="sans-serif" font-size="14" lengthAdjust="spacing" textLength="22.9893" x="400.4033" y="204.292">str,</text><text fill="#000000" font-family="sans-serif" font-size="14" lengthAdjust="spacing" textLength="4.4502" x="423.3926" y="204.292">&#160;</text><text fill="#000000" font-family="sans-serif" font-size="14" lengthAdjust="spacing" textLength="101.7939" x="427.8428" y="204.292">sub_elements:</text><text fill="#000000" font-family="sans-serif" font-size="14" lengthAdjust="spacing" textLength="191.3926" x="186.5" y="220.5889">list[vafmodel.SubElement])</text><ellipse cx="177.5" cy="241.6875" fill="#84BE84" rx="3" ry="3" style="stroke:#038048;stroke-width:1;"/><text fill="#000000" font-family="sans-serif" font-size="14" lengthAdjust="spacing" textLength="166.0176" x="186.5" y="236.8857">add_subelement(name:</text><text fill="#000000" font-family="sans-serif" font-size="14" lengthAdjust="spacing" textLength="4.4502" x="352.5176" y="236.8857">&#160;</text><text fill="#000000" font-family="sans-serif" font-size="14" lengthAdjust="spacing" textLength="22.9893" x="356.9678" y="236.8857">str,</text><text fill="#000000" font-family="sans-serif" font-size="14" lengthAdjust="spacing" textLength="4.4502" x="379.957" y="236.8857">&#160;</text><text fill="#000000" font-family="sans-serif" font-size="14" lengthAdjust="spacing" textLength="67.5254" x="384.4072" y="236.8857">datatype:</text><text fill="#000000" font-family="sans-serif" font-size="14" lengthAdjust="spacing" textLength="4.4502" x="451.9326" y="236.8857">&#160;</text><text fill="#000000" font-family="sans-serif" font-size="14" lengthAdjust="spacing" textLength="136.042" x="456.3828" y="236.8857">BaseTypesWrapper</text><text fill="#000000" font-family="sans-serif" font-size="14" lengthAdjust="spacing" textLength="4.4502" x="592.4248" y="236.8857">&#160;</text><text fill="#000000" font-family="sans-serif" font-size="14" lengthAdjust="spacing" textLength="4.7168" x="596.875" y="236.8857">|</text><text fill="#000000" font-family="sans-serif" font-size="14" lengthAdjust="spacing" textLength="121.6523" x="186.5" y="253.1826">AbstractVafType)</text></g><!--class Vector--><g class="entity" data-entity="Vector" data-source-line="17" data-uid="ent0004" id="entity_Vector"><rect fill="#FFFFFF" height="96.8906" rx="2.5" ry="2.5" style="stroke:#181818;stroke-width:0.5;" width="411.7246" x="95" y="320"/><ellipse cx="273.7632" cy="336" fill="#ADD1B2" rx="11" ry="11" style="stroke:#181818;stroke-width:1;"/><path d="M276.7319,341.6406 Q276.1538,341.9375 275.5132,342.0781 Q274.8726,342.2344 274.1694,342.2344 Q271.6694,342.2344 270.3413,340.5938 Q269.0288,338.9375 269.0288,335.8125 Q269.0288,332.6875 270.3413,331.0313 Q271.6694,329.375 274.1694,329.375 Q274.8726,329.375 275.5132,329.5313 Q276.1694,329.6875 276.7319,329.9844 L276.7319,332.7031 Q276.1069,332.125 275.5132,331.8594 Q274.9194,331.5781 274.2944,331.5781 Q272.9507,331.5781 272.2632,332.6563 Q271.5757,333.7188 271.5757,335.8125 Q271.5757,337.9063 272.2632,338.9844 Q272.9507,340.0469 274.2944,340.0469 Q274.9194,340.0469 275.5132,339.7813 Q276.1069,339.5 276.7319,338.9219 L276.7319,341.6406 Z " fill="#000000"/><text fill="#000000" font-family="sans-serif" font-size="14" lengthAdjust="spacing" textLength="45.6982" x="294.2632" y="340.8467">Vector</text><line style="stroke:#181818;stroke-width:0.5;" x1="96" x2="505.7246" y1="352" y2="352"/><ellipse cx="106" cy="365.6484" fill="none" rx="3" ry="3" style="stroke:#038048;stroke-width:1;"/><text fill="#000000" font-family="sans-serif" font-size="14" lengthAdjust="spacing" textLength="109.2725" x="115" y="368.9951">internal_model:</text><text fill="#000000" font-family="sans-serif" font-size="14" lengthAdjust="spacing" textLength="4.4502" x="224.2725" y="368.9951">&#160;</text><text fill="#000000" font-family="sans-serif" font-size="14" lengthAdjust="spacing" textLength="115.5342" x="228.7227" y="368.9951">vafmodel.Vector</text><line style="stroke:#181818;stroke-width:0.5;" x1="96" x2="505.7246" y1="376.2969" y2="376.2969"/><ellipse cx="106" cy="398.0938" fill="#84BE84" rx="3" ry="3" style="stroke:#038048;stroke-width:1;"/><text fill="#000000" font-family="sans-serif" font-size="14" lengthAdjust="spacing" textLength="136.6504" x="115" y="393.292">Vector(namespace:</text><text fill="#000000" font-family="sans-serif" font-size="14" lengthAdjust="spacing" textLength="4.4502" x="251.6504" y="393.292">&#160;</text><text fill="#000000" font-family="sans-serif" font-size="14" lengthAdjust="spacing" textLength="22.9893" x="256.1006" y="393.292">str,</text><text fill="#000000" font-family="sans-serif" font-size="14" lengthAdjust="spacing" textLength="4.4502" x="279.0898" y="393.292">&#160;</text><text fill="#000000" font-family="sans-serif" font-size="14" lengthAdjust="spacing" textLength="67.5254" x="283.54" y="393.292">datatype:</text><text fill="#000000" font-family="sans-serif" font-size="14" lengthAdjust="spacing" textLength="4.4502" x="351.0654" y="393.292">&#160;</text><text fill="#000000" font-family="sans-serif" font-size="14" lengthAdjust="spacing" textLength="136.042" x="355.5156" y="393.292">BaseTypesWrapper</text><text fill="#000000" font-family="sans-serif" font-size="14" lengthAdjust="spacing" textLength="4.4502" x="491.5576" y="393.292">&#160;</text><text fill="#000000" font-family="sans-serif" font-size="14" lengthAdjust="spacing" textLength="4.7168" x="496.0078" y="393.292">|</text><text fill="#000000" font-family="sans-serif" font-size="14" lengthAdjust="spacing" textLength="120.6406" x="115" y="409.5889">AbstractVafType,</text><text fill="#000000" font-family="sans-serif" font-size="14" lengthAdjust="spacing" textLength="4.4502" x="235.6406" y="409.5889">&#160;</text><text fill="#000000" font-family="sans-serif" font-size="14" lengthAdjust="spacing" textLength="31.8623" x="240.0908" y="409.5889">size:</text><text fill="#000000" font-family="sans-serif" font-size="14" lengthAdjust="spacing" textLength="4.4502" x="271.9531" y="409.5889">&#160;</text><text fill="#000000" font-family="sans-serif" font-size="14" lengthAdjust="spacing" textLength="22.7021" x="276.4033" y="409.5889">int,</text><text fill="#000000" font-family="sans-serif" font-size="14" lengthAdjust="spacing" textLength="4.4502" x="299.1055" y="409.5889">&#160;</text><text fill="#000000" font-family="sans-serif" font-size="14" lengthAdjust="spacing" textLength="44.4199" x="303.5557" y="409.5889">name:</text><text fill="#000000" font-family="sans-serif" font-size="14" lengthAdjust="spacing" textLength="4.4502" x="347.9756" y="409.5889">&#160;</text><text fill="#000000" font-family="sans-serif" font-size="14" lengthAdjust="spacing" textLength="24.001" x="352.4258" y="409.5889">str)</text></g><!--class String--><g class="entity" data-entity="String" data-source-line="22" data-uid="ent0005" id="entity_String"><rect fill="#FFFFFF" height="80.5938" rx="2.5" ry="2.5" style="stroke:#181818;stroke-width:0.5;" width="263.4941" x="820.5" y="155"/><ellipse cx="927.1064" cy="171" fill="#ADD1B2" rx="11" ry="11" style="stroke:#181818;stroke-width:1;"/><path d="M930.0752,176.6406 Q929.4971,176.9375 928.8564,177.0781 Q928.2158,177.2344 927.5127,177.2344 Q925.0127,177.2344 923.6846,175.5938 Q922.3721,173.9375 922.3721,170.8125 Q922.3721,167.6875 923.6846,166.0313 Q925.0127,164.375 927.5127,164.375 Q928.2158,164.375 928.8564,164.5313 Q929.5127,164.6875 930.0752,164.9844 L930.0752,167.7031 Q929.4502,167.125 928.8564,166.8594 Q928.2627,166.5781 927.6377,166.5781 Q926.2939,166.5781 925.6064,167.6563 Q924.9189,168.7188 924.9189,170.8125 Q924.9189,172.9063 925.6064,173.9844 Q926.2939,175.0469 927.6377,175.0469 Q928.2627,175.0469 928.8564,174.7813 Q929.4502,174.5 930.0752,173.9219 L930.0752,176.6406 Z " fill="#000000"/><text fill="#000000" font-family="sans-serif" font-size="14" lengthAdjust="spacing" textLength="41.7813" x="947.6064" y="175.8467">String</text><line style="stroke:#181818;stroke-width:0.5;" x1="821.5" x2="1082.9941" y1="187" y2="187"/><ellipse cx="831.5" cy="200.6484" fill="none" rx="3" ry="3" style="stroke:#038048;stroke-width:1;"/><text fill="#000000" font-family="sans-serif" font-size="14" lengthAdjust="spacing" textLength="109.2725" x="840.5" y="203.9951">internal_model:</text><text fill="#000000" font-family="sans-serif" font-size="14" lengthAdjust="spacing" textLength="4.4502" x="949.7725" y="203.9951">&#160;</text><text fill="#000000" font-family="sans-serif" font-size="14" lengthAdjust="spacing" textLength="111.6172" x="954.2227" y="203.9951">vafmodel.String</text><line style="stroke:#181818;stroke-width:0.5;" x1="821.5" x2="1082.9941" y1="211.2969" y2="211.2969"/><ellipse cx="831.5" cy="224.9453" fill="#84BE84" rx="3" ry="3" style="stroke:#038048;stroke-width:1;"/><text fill="#000000" font-family="sans-serif" font-size="14" lengthAdjust="spacing" textLength="91.6631" x="840.5" y="228.292">String(name:</text><text fill="#000000" font-family="sans-serif" font-size="14" lengthAdjust="spacing" textLength="4.4502" x="932.1631" y="228.292">&#160;</text><text fill="#000000" font-family="sans-serif" font-size="14" lengthAdjust="spacing" textLength="22.9893" x="936.6133" y="228.292">str,</text><text fill="#000000" font-family="sans-serif" font-size="14" lengthAdjust="spacing" textLength="4.4502" x="959.6025" y="228.292">&#160;</text><text fill="#000000" font-family="sans-serif" font-size="14" lengthAdjust="spacing" textLength="85.4902" x="964.0527" y="228.292">namespace:</text><text fill="#000000" font-family="sans-serif" font-size="14" lengthAdjust="spacing" textLength="4.4502" x="1049.543" y="228.292">&#160;</text><text fill="#000000" font-family="sans-serif" font-size="14" lengthAdjust="spacing" textLength="24.001" x="1053.9932" y="228.292">str)</text></g><!--class TypeRef--><g class="entity" data-entity="TypeRef" data-source-line="27" data-uid="ent0006" id="entity_TypeRef"><rect fill="#FFFFFF" height="96.8906" rx="2.5" ry="2.5" style="stroke:#181818;stroke-width:0.5;" width="499.9424" x="714" y="320"/><ellipse cx="930.918" cy="336" fill="#ADD1B2" rx="11" ry="11" style="stroke:#181818;stroke-width:1;"/><path d="M933.8867,341.6406 Q933.3086,341.9375 932.668,342.0781 Q932.0273,342.2344 931.3242,342.2344 Q928.8242,342.2344 927.4961,340.5938 Q926.1836,338.9375 926.1836,335.8125 Q926.1836,332.6875 927.4961,331.0313 Q928.8242,329.375 931.3242,329.375 Q932.0273,329.375 932.668,329.5313 Q933.3242,329.6875 933.8867,329.9844 L933.8867,332.7031 Q933.2617,332.125 932.668,331.8594 Q932.0742,331.5781 931.4492,331.5781 Q930.1055,331.5781 929.418,332.6563 Q928.7305,333.7188 928.7305,335.8125 Q928.7305,337.9063 929.418,338.9844 Q930.1055,340.0469 931.4492,340.0469 Q932.0742,340.0469 932.668,339.7813 Q933.2617,339.5 933.8867,338.9219 L933.8867,341.6406 Z " fill="#000000"/><text fill="#000000" font-family="sans-serif" font-size="14" lengthAdjust="spacing" textLength="57.6064" x="951.418" y="340.8467">TypeRef</text><line style="stroke:#181818;stroke-width:0.5;" x1="715" x2="1212.9424" y1="352" y2="352"/><ellipse cx="725" cy="365.6484" fill="none" rx="3" ry="3" style="stroke:#038048;stroke-width:1;"/><text fill="#000000" font-family="sans-serif" font-size="14" lengthAdjust="spacing" textLength="109.2725" x="734" y="368.9951">internal_model:</text><text fill="#000000" font-family="sans-serif" font-size="14" lengthAdjust="spacing" textLength="4.4502" x="843.2725" y="368.9951">&#160;</text><text fill="#000000" font-family="sans-serif" font-size="14" lengthAdjust="spacing" textLength="127.4424" x="847.7227" y="368.9951">vafmodel.TypeRef</text><line style="stroke:#181818;stroke-width:0.5;" x1="715" x2="1212.9424" y1="376.2969" y2="376.2969"/><ellipse cx="725" cy="398.0938" fill="#84BE84" rx="3" ry="3" style="stroke:#038048;stroke-width:1;"/><text fill="#000000" font-family="sans-serif" font-size="14" lengthAdjust="spacing" textLength="107.4883" x="734" y="393.292">TypeRef(name:</text><text fill="#000000" font-family="sans-serif" font-size="14" lengthAdjust="spacing" textLength="4.4502" x="841.4883" y="393.292">&#160;</text><text fill="#000000" font-family="sans-serif" font-size="14" lengthAdjust="spacing" textLength="22.9893" x="845.9385" y="393.292">str,</text><text fill="#000000" font-family="sans-serif" font-size="14" lengthAdjust="spacing" textLength="4.4502" x="868.9277" y="393.292">&#160;</text><text fill="#000000" font-family="sans-serif" font-size="14" lengthAdjust="spacing" textLength="85.4902" x="873.3779" y="393.292">namespace:</text><text fill="#000000" font-family="sans-serif" font-size="14" lengthAdjust="spacing" textLength="4.4502" x="958.8682" y="393.292">&#160;</text><text fill="#000000" font-family="sans-serif" font-size="14" lengthAdjust="spacing" textLength="22.9893" x="963.3184" y="393.292">str,</text><text fill="#000000" font-family="sans-serif" font-size="14" lengthAdjust="spacing" textLength="4.4502" x="986.3076" y="393.292">&#160;</text><text fill="#000000" font-family="sans-serif" font-size="14" lengthAdjust="spacing" textLength="67.5254" x="990.7578" y="393.292">datatype:</text><text fill="#000000" font-family="sans-serif" font-size="14" lengthAdjust="spacing" textLength="4.4502" x="1058.2832" y="393.292">&#160;</text><text fill="#000000" font-family="sans-serif" font-size="14" lengthAdjust="spacing" textLength="136.042" x="1062.7334" y="393.292">BaseTypesWrapper</text><text fill="#000000" font-family="sans-serif" font-size="14" lengthAdjust="spacing" textLength="4.4502" x="1198.7754" y="393.292">&#160;</text><text fill="#000000" font-family="sans-serif" font-size="14" lengthAdjust="spacing" textLength="4.7168" x="1203.2256" y="393.292">|</text><text fill="#000000" font-family="sans-serif" font-size="14" lengthAdjust="spacing" textLength="121.6523" x="734" y="409.5889">AbstractVafType)</text></g><!--class Map--><g class="entity" data-entity="Map" data-source-line="32" data-uid="ent0007" id="entity_Map"><rect fill="#FFFFFF" height="96.8906" rx="2.5" ry="2.5" style="stroke:#181818;stroke-width:0.5;" width="508.084" x="463" y="477"/><ellipse cx="698.0195" cy="493" fill="#ADD1B2" rx="11" ry="11" style="stroke:#181818;stroke-width:1;"/><path d="M700.9883,498.6406 Q700.4102,498.9375 699.7695,499.0781 Q699.1289,499.2344 698.4258,499.2344 Q695.9258,499.2344 694.5977,497.5938 Q693.2852,495.9375 693.2852,492.8125 Q693.2852,489.6875 694.5977,488.0313 Q695.9258,486.375 698.4258,486.375 Q699.1289,486.375 699.7695,486.5313 Q700.4258,486.6875 700.9883,486.9844 L700.9883,489.7031 Q700.3633,489.125 699.7695,488.8594 Q699.1758,488.5781 698.5508,488.5781 Q697.207,488.5781 696.5195,489.6563 Q695.832,490.7188 695.832,492.8125 Q695.832,494.9063 696.5195,495.9844 Q697.207,497.0469 698.5508,497.0469 Q699.1758,497.0469 699.7695,496.7813 Q700.3633,496.5 700.9883,495.9219 L700.9883,498.6406 Z " fill="#000000"/><text fill="#000000" font-family="sans-serif" font-size="14" lengthAdjust="spacing" textLength="29.5449" x="718.5195" y="497.8467">Map</text><line style="stroke:#181818;stroke-width:0.5;" x1="464" x2="970.084" y1="509" y2="509"/><ellipse cx="474" cy="522.6484" fill="none" rx="3" ry="3" style="stroke:#038048;stroke-width:1;"/><text fill="#000000" font-family="sans-serif" font-size="14" lengthAdjust="spacing" textLength="109.2725" x="483" y="525.9951">internal_model:</text><text fill="#000000" font-family="sans-serif" font-size="14" lengthAdjust="spacing" textLength="4.4502" x="592.2725" y="525.9951">&#160;</text><text fill="#000000" font-family="sans-serif" font-size="14" lengthAdjust="spacing" textLength="99.3809" x="596.7227" y="525.9951">vafmodel.Map</text><line style="stroke:#181818;stroke-width:0.5;" x1="464" x2="970.084" y1="533.2969" y2="533.2969"/><ellipse cx="474" cy="555.0938" fill="#84BE84" rx="3" ry="3" style="stroke:#038048;stroke-width:1;"/><text fill="#000000" font-family="sans-serif" font-size="14" lengthAdjust="spacing" textLength="79.4268" x="483" y="550.292">Map(name:</text><text fill="#000000" font-family="sans-serif" font-size="14" lengthAdjust="spacing" textLength="4.4502" x="562.4268" y="550.292">&#160;</text><text fill="#000000" font-family="sans-serif" font-size="14" lengthAdjust="spacing" textLength="22.9893" x="566.877" y="550.292">str,</text><text fill="#000000" font-family="sans-serif" font-size="14" lengthAdjust="spacing" textLength="4.4502" x="589.8662" y="550.292">&#160;</text><text fill="#000000" font-family="sans-serif" font-size="14" lengthAdjust="spacing" textLength="85.4902" x="594.3164" y="550.292">namespace:</text><text fill="#000000" font-family="sans-serif" font-size="14" lengthAdjust="spacing" textLength="4.4502" x="679.8066" y="550.292">&#160;</text><text fill="#000000" font-family="sans-serif" font-size="14" lengthAdjust="spacing" textLength="22.9893" x="684.2568" y="550.292">str,</text><text fill="#000000" font-family="sans-serif" font-size="14" lengthAdjust="spacing" textLength="4.4502" x="707.2461" y="550.292">&#160;</text><text fill="#000000" font-family="sans-serif" font-size="14" lengthAdjust="spacing" textLength="67.9971" x="711.6963" y="550.292">key_type:</text><text fill="#000000" font-family="sans-serif" font-size="14" lengthAdjust="spacing" textLength="4.4502" x="779.6934" y="550.292">&#160;</text><text fill="#000000" font-family="sans-serif" font-size="14" lengthAdjust="spacing" textLength="136.042" x="784.1436" y="550.292">BaseTypesWrapper</text><text fill="#000000" font-family="sans-serif" font-size="14" lengthAdjust="spacing" textLength="4.4502" x="920.1855" y="550.292">&#160;</text><text fill="#000000" font-family="sans-serif" font-size="14" lengthAdjust="spacing" textLength="4.7168" x="924.6357" y="550.292">|</text><text fill="#000000" font-family="sans-serif" font-size="14" lengthAdjust="spacing" textLength="120.6406" x="483" y="566.5889">AbstractVafType,</text><text fill="#000000" font-family="sans-serif" font-size="14" lengthAdjust="spacing" textLength="4.4502" x="603.6406" y="566.5889">&#160;</text><text fill="#000000" font-family="sans-serif" font-size="14" lengthAdjust="spacing" textLength="81.2314" x="608.0908" y="566.5889">value_type:</text><text fill="#000000" font-family="sans-serif" font-size="14" lengthAdjust="spacing" textLength="4.4502" x="689.3223" y="566.5889">&#160;</text><text fill="#000000" font-family="sans-serif" font-size="14" lengthAdjust="spacing" textLength="136.042" x="693.7725" y="566.5889">BaseTypesWrapper</text><text fill="#000000" font-family="sans-serif" font-size="14" lengthAdjust="spacing" textLength="4.4502" x="829.8145" y="566.5889">&#160;</text><text fill="#000000" font-family="sans-serif" font-size="14" lengthAdjust="spacing" textLength="4.7168" x="834.2646" y="566.5889">|</text><text fill="#000000" font-family="sans-serif" font-size="14" lengthAdjust="spacing" textLength="4.4502" x="838.9814" y="566.5889">&#160;</text><text fill="#000000" font-family="sans-serif" font-size="14" lengthAdjust="spacing" textLength="121.6523" x="843.4316" y="566.5889">AbstractVafType)</text></g><!--class Array--><g class="entity" data-entity="Array" data-source-line="37" data-uid="ent0008" id="entity_Array"><rect fill="#FFFFFF" height="96.8906" rx="2.5" ry="2.5" style="stroke:#181818;stroke-width:0.5;" width="403.9795" x="24" y="477"/><ellipse cx="202.7632" cy="493" fill="#ADD1B2" rx="11" ry="11" style="stroke:#181818;stroke-width:1;"/><path d="M205.7319,498.6406 Q205.1538,498.9375 204.5132,499.0781 Q203.8726,499.2344 203.1694,499.2344 Q200.6694,499.2344 199.3413,497.5938 Q198.0288,495.9375 198.0288,492.8125 Q198.0288,489.6875 199.3413,488.0313 Q200.6694,486.375 203.1694,486.375 Q203.8726,486.375 204.5132,486.5313 Q205.1694,486.6875 205.7319,486.9844 L205.7319,489.7031 Q205.1069,489.125 204.5132,488.8594 Q203.9194,488.5781 203.2944,488.5781 Q201.9507,488.5781 201.2632,489.6563 Q200.5757,490.7188 200.5757,492.8125 Q200.5757,494.9063 201.2632,495.9844 Q201.9507,497.0469 203.2944,497.0469 Q203.9194,497.0469 204.5132,496.7813 Q205.1069,496.5 205.7319,495.9219 L205.7319,498.6406 Z " fill="#000000"/><text fill="#000000" font-family="sans-serif" font-size="14" lengthAdjust="spacing" textLength="37.9531" x="223.2632" y="497.8467">Array</text><line style="stroke:#181818;stroke-width:0.5;" x1="25" x2="426.9795" y1="509" y2="509"/><ellipse cx="35" cy="522.6484" fill="none" rx="3" ry="3" style="stroke:#038048;stroke-width:1;"/><text fill="#000000" font-family="sans-serif" font-size="14" lengthAdjust="spacing" textLength="109.2725" x="44" y="525.9951">internal_model:</text><text fill="#000000" font-family="sans-serif" font-size="14" lengthAdjust="spacing" textLength="4.4502" x="153.2725" y="525.9951">&#160;</text><text fill="#000000" font-family="sans-serif" font-size="14" lengthAdjust="spacing" textLength="107.7891" x="157.7227" y="525.9951">vafmodel.Array</text><line style="stroke:#181818;stroke-width:0.5;" x1="25" x2="426.9795" y1="533.2969" y2="533.2969"/><ellipse cx="35" cy="555.0938" fill="#84BE84" rx="3" ry="3" style="stroke:#038048;stroke-width:1;"/><text fill="#000000" font-family="sans-serif" font-size="14" lengthAdjust="spacing" textLength="128.9053" x="44" y="550.292">Array(namespace:</text><text fill="#000000" font-family="sans-serif" font-size="14" lengthAdjust="spacing" textLength="4.4502" x="172.9053" y="550.292">&#160;</text><text fill="#000000" font-family="sans-serif" font-size="14" lengthAdjust="spacing" textLength="22.9893" x="177.3555" y="550.292">str,</text><text fill="#000000" font-family="sans-serif" font-size="14" lengthAdjust="spacing" textLength="4.4502" x="200.3447" y="550.292">&#160;</text><text fill="#000000" font-family="sans-serif" font-size="14" lengthAdjust="spacing" textLength="67.5254" x="204.7949" y="550.292">datatype:</text><text fill="#000000" font-family="sans-serif" font-size="14" lengthAdjust="spacing" textLength="4.4502" x="272.3203" y="550.292">&#160;</text><text fill="#000000" font-family="sans-serif" font-size="14" lengthAdjust="spacing" textLength="136.042" x="276.7705" y="550.292">BaseTypesWrapper</text><text fill="#000000" font-family="sans-serif" font-size="14" lengthAdjust="spacing" textLength="4.4502" x="412.8125" y="550.292">&#160;</text><text fill="#000000" font-family="sans-serif" font-size="14" lengthAdjust="spacing" textLength="4.7168" x="417.2627" y="550.292">|</text><text fill="#000000" font-family="sans-serif" font-size="14" lengthAdjust="spacing" textLength="120.6406" x="44" y="566.5889">AbstractVafType,</text><text fill="#000000" font-family="sans-serif" font-size="14" lengthAdjust="spacing" textLength="4.4502" x="164.6406" y="566.5889">&#160;</text><text fill="#000000" font-family="sans-serif" font-size="14" lengthAdjust="spacing" textLength="31.8623" x="169.0908" y="566.5889">size:</text><text fill="#000000" font-family="sans-serif" font-size="14" lengthAdjust="spacing" textLength="4.4502" x="200.9531" y="566.5889">&#160;</text><text fill="#000000" font-family="sans-serif" font-size="14" lengthAdjust="spacing" textLength="22.7021" x="205.4033" y="566.5889">int,</text><text fill="#000000" font-family="sans-serif" font-size="14" lengthAdjust="spacing" textLength="4.4502" x="228.1055" y="566.5889">&#160;</text><text fill="#000000" font-family="sans-serif" font-size="14" lengthAdjust="spacing" textLength="44.4199" x="232.5557" y="566.5889">name:</text><text fill="#000000" font-family="sans-serif" font-size="14" lengthAdjust="spacing" textLength="4.4502" x="276.9756" y="566.5889">&#160;</text><text fill="#000000" font-family="sans-serif" font-size="14" lengthAdjust="spacing" textLength="24.001" x="281.4258" y="566.5889">str)</text></g><!--class Enum--><g class="entity" data-entity="Enum" data-source-line="42" data-uid="ent0009" id="entity_Enum"><rect fill="#FFFFFF" height="96.8906" rx="2.5" ry="2.5" style="stroke:#181818;stroke-width:0.5;" width="512.9785" x="87.5" y="634"/><ellipse cx="319.6245" cy="650" fill="#ADD1B2" rx="11" ry="11" style="stroke:#181818;stroke-width:1;"/><path d="M322.5933,655.6406 Q322.0151,655.9375 321.3745,656.0781 Q320.7339,656.2344 320.0308,656.2344 Q317.5308,656.2344 316.2026,654.5938 Q314.8901,652.9375 314.8901,649.8125 Q314.8901,646.6875 316.2026,645.0313 Q317.5308,643.375 320.0308,643.375 Q320.7339,643.375 321.3745,643.5313 Q322.0308,643.6875 322.5933,643.9844 L322.5933,646.7031 Q321.9683,646.125 321.3745,645.8594 Q320.7808,645.5781 320.1558,645.5781 Q318.812,645.5781 318.1245,646.6563 Q317.437,647.7188 317.437,649.8125 Q317.437,651.9063 318.1245,652.9844 Q318.812,654.0469 320.1558,654.0469 Q320.7808,654.0469 321.3745,653.7813 Q321.9683,653.5 322.5933,652.9219 L322.5933,655.6406 Z " fill="#000000"/><text fill="#000000" font-family="sans-serif" font-size="14" lengthAdjust="spacing" textLength="40.2295" x="340.1245" y="654.8467">Enum</text><line style="stroke:#181818;stroke-width:0.5;" x1="88.5" x2="599.4785" y1="666" y2="666"/><ellipse cx="98.5" cy="679.6484" fill="none" rx="3" ry="3" style="stroke:#038048;stroke-width:1;"/><text fill="#000000" font-family="sans-serif" font-size="14" lengthAdjust="spacing" textLength="109.2725" x="107.5" y="682.9951">internal_model:</text><text fill="#000000" font-family="sans-serif" font-size="14" lengthAdjust="spacing" textLength="4.4502" x="216.7725" y="682.9951">&#160;</text><text fill="#000000" font-family="sans-serif" font-size="14" lengthAdjust="spacing" textLength="133.1504" x="221.2227" y="682.9951">vafmodel.VafEnum</text><line style="stroke:#181818;stroke-width:0.5;" x1="88.5" x2="599.4785" y1="690.2969" y2="690.2969"/><ellipse cx="98.5" cy="703.9453" fill="#84BE84" rx="3" ry="3" style="stroke:#038048;stroke-width:1;"/><text fill="#000000" font-family="sans-serif" font-size="14" lengthAdjust="spacing" textLength="90.1113" x="107.5" y="707.292">Enum(name:</text><text fill="#000000" font-family="sans-serif" font-size="14" lengthAdjust="spacing" textLength="4.4502" x="197.6113" y="707.292">&#160;</text><text fill="#000000" font-family="sans-serif" font-size="14" lengthAdjust="spacing" textLength="22.9893" x="202.0615" y="707.292">str,</text><text fill="#000000" font-family="sans-serif" font-size="14" lengthAdjust="spacing" textLength="4.4502" x="225.0508" y="707.292">&#160;</text><text fill="#000000" font-family="sans-serif" font-size="14" lengthAdjust="spacing" textLength="85.4902" x="229.501" y="707.292">namespace:</text><text fill="#000000" font-family="sans-serif" font-size="14" lengthAdjust="spacing" textLength="4.4502" x="314.9912" y="707.292">&#160;</text><text fill="#000000" font-family="sans-serif" font-size="14" lengthAdjust="spacing" textLength="22.9893" x="319.4414" y="707.292">str,</text><text fill="#000000" font-family="sans-serif" font-size="14" lengthAdjust="spacing" textLength="4.4502" x="342.4307" y="707.292">&#160;</text><text fill="#000000" font-family="sans-serif" font-size="14" lengthAdjust="spacing" textLength="52.1172" x="346.8809" y="707.292">literals:</text><text fill="#000000" font-family="sans-serif" font-size="14" lengthAdjust="spacing" textLength="4.4502" x="398.998" y="707.292">&#160;</text><text fill="#000000" font-family="sans-serif" font-size="14" lengthAdjust="spacing" textLength="191.0303" x="403.4482" y="707.292">list[vafmodel.EnumLiteral])</text><ellipse cx="98.5" cy="720.2422" fill="#84BE84" rx="3" ry="3" style="stroke:#038048;stroke-width:1;"/><text fill="#000000" font-family="sans-serif" font-size="14" lengthAdjust="spacing" textLength="114.4063" x="107.5" y="723.5889">add_entry(label:</text><text fill="#000000" font-family="sans-serif" font-size="14" lengthAdjust="spacing" textLength="4.4502" x="221.9063" y="723.5889">&#160;</text><text fill="#000000" font-family="sans-serif" font-size="14" lengthAdjust="spacing" textLength="22.9893" x="226.3564" y="723.5889">str,</text><text fill="#000000" font-family="sans-serif" font-size="14" lengthAdjust="spacing" textLength="4.4502" x="249.3457" y="723.5889">&#160;</text><text fill="#000000" font-family="sans-serif" font-size="14" lengthAdjust="spacing" textLength="42.957" x="253.7959" y="723.5889">value:</text><text fill="#000000" font-family="sans-serif" font-size="14" lengthAdjust="spacing" textLength="4.4502" x="296.7529" y="723.5889">&#160;</text><text fill="#000000" font-family="sans-serif" font-size="14" lengthAdjust="spacing" textLength="23.7139" x="301.2031" y="723.5889">int)</text></g><!--reverse link AbstractVafType to Struct--><g class="link" data-entity-1="AbstractVafType" data-entity-2="Struct" data-source-line="48" data-uid="lnk10" id="link_AbstractVafType_Struct"><path codeLine="48" d="M387,89.05 C387,106.31 387,110.24 387,130.87" fill="none" id="AbstractVafType-backto-Struct" style="stroke:#181818;stroke-width:1;"/><polygon fill="none" points="387,71.05,381,89.05,393,89.05,387,71.05" style="stroke:#181818;stroke-width:1;"/></g><!--reverse link AbstractVafType to Vector--><g class="link" data-entity-1="AbstractVafType" data-entity-2="Vector" data-source-line="49" data-uid="lnk11" id="link_AbstractVafType_Vector"><path codeLine="49" d="M247.25,55 C181.14,55 130.75,55 130.75,55 C130.75,55 130.75,231.8 130.75,319.86" fill="none" id="AbstractVafType-backto-Vector" style="stroke:#181818;stroke-width:1;"/><polygon fill="none" points="265.25,55,247.25,49,247.25,61,265.25,55" style="stroke:#181818;stroke-width:1;"/></g><!--reverse link AbstractVafType to String--><g class="link" data-entity-1="AbstractVafType" data-entity-2="String" data-source-line="50" data-uid="lnk12" id="link_AbstractVafType_String"><path codeLine="50" d="M526.55,23 C692.61,23 952,23 952,23 C952,23 952,103.61 952,154.62" fill="none" id="AbstractVafType-backto-String" style="stroke:#181818;stroke-width:1;"/><polygon fill="none" points="508.55,23,526.55,29,526.55,17,508.55,23" style="stroke:#181818;stroke-width:1;"/></g><!--reverse link AbstractVafType to TypeRef--><g class="link" data-entity-1="AbstractVafType" data-entity-2="TypeRef" data-source-line="51" data-uid="lnk13" id="link_AbstractVafType_TypeRef"><path codeLine="51" d="M526.62,39 C637.87,39 767.25,39 767.25,39 C767.25,39 767.25,228.23 767.25,319.88" fill="none" id="AbstractVafType-backto-TypeRef" style="stroke:#181818;stroke-width:1;"/><polygon fill="none" points="508.62,39,526.62,45,526.62,33,508.62,39" style="stroke:#181818;stroke-width:1;"/></g><!--reverse link AbstractVafType to Map--><g class="link" data-entity-1="AbstractVafType" data-entity-2="Map" data-source-line="52" data-uid="lnk14" id="link_AbstractVafType_Map"><path codeLine="52" d="M526.66,55 C599.78,55 660.75,55 660.75,55 C660.75,55 660.75,356.71 660.75,476.92" fill="none" id="AbstractVafType-backto-Map" style="stroke:#181818;stroke-width:1;"/><polygon fill="none" points="508.66,55,526.66,61,526.66,49,508.66,55" style="stroke:#181818;stroke-width:1;"/></g><!--reverse link AbstractVafType to Array--><g class="link" data-entity-1="AbstractVafType" data-entity-2="Array" data-source-line="53" data-uid="lnk15" id="link_AbstractVafType_Array"><path codeLine="53" d="M247.05,39 C153.94,39 59.5,39 59.5,39 C59.5,39 59.5,353.26 59.5,476.63" fill="none" id="AbstractVafType-backto-Array" style="stroke:#181818;stroke-width:1;"/><polygon fill="none" points="265.05,39,247.05,33,247.05,45,265.05,39" style="stroke:#181818;stroke-width:1;"/></g><!--reverse link AbstractVafType to Enum--><g class="link" data-entity-1="AbstractVafType" data-entity-2="Enum" data-source-line="54" data-uid="lnk16" id="link_AbstractVafType_Enum"><path codeLine="54" d="M247.4,23 C135.9,23 6,23 6,23 C6,23 6,683 6,683 C6,683 40.47,683 87.39,683" fill="none" id="AbstractVafType-backto-Enum" style="stroke:#181818;stroke-width:1;"/><polygon fill="none" points="265.4,23,247.4,17,247.4,29,265.4,23" style="stroke:#181818;stroke-width:1;"/></g><!--link Struct to Vector--><!--link Vector to Array--><!--link String to TypeRef--><!--link TypeRef to Map--><!--link Map to Enum--><!--SRC=[nPHDJm8n48Rl-okQUC4eXeiNumKKJtWH8mTYDiEsG4Etkscx92Z-TpjjzmDSG1CIzzJfxBpppBHJlU8o1mKf6N79p2Pd95DccKMwSamKv1DEpPBSzdgDVP88q9fyHiH-0qXM2vKLaZva8bE4N3ovB_gA8fXfeo0n8Q0Vp3UOls8-Bt15A1Y8aU2Eh66UPfI9cqUxXp-XZ8yU6rLOgJB8cnq9gGspkjS4bpg7fBHrCOkPO2cJHjyHmRMPLlBZOZRqhlVB80YKnZOaH3I5aS_Z3K0pfDBOcfmfijqlgbJZqZ0bGSGkNwCmprsNzSOIOzjMbkNDpdujVq6mbVCF-wT5y4rn6YV1VEQTVdEvQFRRceVx_Pl2hK2jZwWlR5ub2FQn4pthGOHyDT0pv1MCNHy3MR5D_FlZM8CeM7msSCjMG_ULWas5xQp_k3mkSKqrb4LQGQ5nh9c2Mr4GFsOKuqRUjpEaTZhLfYDWXWHEmJNOCP- -vJ17NKJTVuxkjzrkU5RQVM523iNXxMxrbJUjrOcdsUhmBMrrkGgYy21sfqjEAPFlj28CRqhJuzMYCDHDJqbNpcFJXt0u5iqzJFuD]--></g></svg>