<?xml version="1.0" encoding="UTF-8" standalone="no"?><svg xmlns="http://www.w3.org/2000/svg" xmlns:xlink="http://www.w3.org/1999/xlink" contentScriptType="application/ecmascript" contentStyleType="text/css" height="334px" preserveAspectRatio="none" style="width:352px;height:334px;" version="1.1" viewBox="0 0 352 334" width="352px" zoomAndPan="magnify"><defs><filter height="300%" id="f1lcwbgf4dlvhz" width="300%" x="-1" y="-1"><feGaussianBlur result="blurOut" stdDeviation="2.0"/><feColorMatrix in="blurOut" result="blurOut2" type="matrix" values="0 0 0 0 0 0 0 0 0 0 0 0 0 0 0 0 0 0 .4 0"/><feOffset dx="4.0" dy="4.0" in="blurOut2" result="blurOut3"/><feBlend in="SourceGraphic" in2="blurOut3" mode="normal"/></filter></defs><g><!--MD5=[07b9c9bb2dc14bf7e6468cd90df08689]
class Executable--><rect fill="#FFFFFF" filter="url(#f1lcwbgf4dlvhz)" height="60.8047" id="Executable" style="stroke: #A80036; stroke-width: 1.5;" width="323" x="11.5" y="8"/><ellipse cx="134.25" cy="24" fill="#ADD1B2" rx="11" ry="11" style="stroke: #A80036; stroke-width: 1.0;"/><path d="M137.2188,29.6406 Q136.6406,29.9375 136,30.0781 Q135.3594,30.2344 134.6563,30.2344 Q132.1563,30.2344 130.8281,28.5938 Q129.5156,26.9375 129.5156,23.8125 Q129.5156,20.6875 130.8281,19.0313 Q132.1563,17.375 134.6563,17.375 Q135.3594,17.375 136,17.5313 Q136.6563,17.6875 137.2188,17.9844 L137.2188,20.7031 Q136.5938,20.125 136,19.8594 Q135.4063,19.5781 134.7813,19.5781 Q133.4375,19.5781 132.75,20.6563 Q132.0625,21.7188 132.0625,23.8125 Q132.0625,25.9063 132.75,26.9844 Q133.4375,28.0469 134.7813,28.0469 Q135.4063,28.0469 136,27.7813 Q136.5938,27.5 137.2188,26.9219 L137.2188,29.6406 Z "/><text fill="#000000" font-family="sans-serif" font-size="12" lengthAdjust="spacingAndGlyphs" textLength="69" x="154.75" y="28.1543">Executable</text><line style="stroke: #A80036; stroke-width: 1.5;" x1="12.5" x2="333.5" y1="40" y2="40"/><ellipse cx="22.5" cy="51" fill="none" rx="3" ry="3" style="stroke: #038048; stroke-width: 1.0;"/><text fill="#000000" font-family="sans-serif" font-size="11" lengthAdjust="spacingAndGlyphs" textLength="297" x="31.5" y="54.2104">application_modules: list[AbstractApplicationModule]</text><line style="stroke: #A80036; stroke-width: 1.5;" x1="12.5" x2="333.5" y1="60.8047" y2="60.8047"/><!--MD5=[26e2a85c06611372298526764170fca9]
class ApplicationModule--><rect fill="#FFFFFF" filter="url(#f1lcwbgf4dlvhz)" height="86.4141" id="ApplicationModule" style="stroke: #A80036; stroke-width: 1.5;" width="246" x="50" y="129"/><ellipse cx="111.75" cy="145" fill="#ADD1B2" rx="11" ry="11" style="stroke: #A80036; stroke-width: 1.0;"/><path d="M114.7188,150.6406 Q114.1406,150.9375 113.5,151.0781 Q112.8594,151.2344 112.1563,151.2344 Q109.6563,151.2344 108.3281,149.5938 Q107.0156,147.9375 107.0156,144.8125 Q107.0156,141.6875 108.3281,140.0313 Q109.6563,138.375 112.1563,138.375 Q112.8594,138.375 113.5,138.5313 Q114.1563,138.6875 114.7188,138.9844 L114.7188,141.7031 Q114.0938,141.125 113.5,140.8594 Q112.9063,140.5781 112.2813,140.5781 Q110.9375,140.5781 110.25,141.6563 Q109.5625,142.7188 109.5625,144.8125 Q109.5625,146.9063 110.25,147.9844 Q110.9375,149.0469 112.2813,149.0469 Q112.9063,149.0469 113.5,148.7813 Q114.0938,148.5 114.7188,147.9219 L114.7188,150.6406 Z "/><text fill="#000000" font-family="sans-serif" font-size="12" lengthAdjust="spacingAndGlyphs" textLength="114" x="132.25" y="149.1543">ApplicationModule</text><line style="stroke: #A80036; stroke-width: 1.5;" x1="51" x2="295" y1="161" y2="161"/><ellipse cx="61" cy="172" fill="none" rx="3" ry="3" style="stroke: #038048; stroke-width: 1.0;"/><text fill="#000000" font-family="sans-serif" font-size="11" lengthAdjust="spacingAndGlyphs" textLength="220" x="70" y="175.2104">consumed_interfaces: ModuleInterface</text><ellipse cx="61" cy="184.8047" fill="none" rx="3" ry="3" style="stroke: #038048; stroke-width: 1.0;"/><text fill="#000000" font-family="sans-serif" font-size="11" lengthAdjust="spacingAndGlyphs" textLength="210" x="70" y="188.0151">provided_interfaces: ModuleInterface</text><ellipse cx="61" cy="197.6094" fill="none" rx="3" ry="3" style="stroke: #038048; stroke-width: 1.0;"/><text fill="#000000" font-family="sans-serif" font-size="11" lengthAdjust="spacingAndGlyphs" textLength="91" x="70" y="200.8198">tasks: list[Task]</text><line style="stroke: #A80036; stroke-width: 1.5;" x1="51" x2="295" y1="207.4141" y2="207.4141"/><!--MD5=[b34797a66dc35cbf1d65f7e3ca75530e]
class Task--><rect fill="#FFFFFF" filter="url(#f1lcwbgf4dlvhz)" height="48" id="Task" style="stroke: #A80036; stroke-width: 1.5;" width="150" x="6" y="275"/><ellipse cx="62.25" cy="291" fill="#ADD1B2" rx="11" ry="11" style="stroke: #A80036; stroke-width: 1.0;"/><path d="M65.2188,296.6406 Q64.6406,296.9375 64,297.0781 Q63.3594,297.2344 62.6563,297.2344 Q60.1563,297.2344 58.8281,295.5938 Q57.5156,293.9375 57.5156,290.8125 Q57.5156,287.6875 58.8281,286.0313 Q60.1563,284.375 62.6563,284.375 Q63.3594,284.375 64,284.5313 Q64.6563,284.6875 65.2188,284.9844 L65.2188,287.7031 Q64.5938,287.125 64,286.8594 Q63.4063,286.5781 62.7813,286.5781 Q61.4375,286.5781 60.75,287.6563 Q60.0625,288.7188 60.0625,290.8125 Q60.0625,292.9063 60.75,293.9844 Q61.4375,295.0469 62.7813,295.0469 Q63.4063,295.0469 64,294.7813 Q64.5938,294.5 65.2188,293.9219 L65.2188,296.6406 Z "/><text fill="#000000" font-family="sans-serif" font-size="12" lengthAdjust="spacingAndGlyphs" textLength="29" x="82.75" y="295.1543">Task</text><line style="stroke: #A80036; stroke-width: 1.5;" x1="7" x2="155" y1="307" y2="307"/><line style="stroke: #A80036; stroke-width: 1.5;" x1="7" x2="155" y1="315" y2="315"/><!--MD5=[31ddb61b196718dfb51737f5c67c2c13]
class ModuleInterface--><rect fill="#FFFFFF" filter="url(#f1lcwbgf4dlvhz)" height="48" id="ModuleInterface" style="stroke: #A80036; stroke-width: 1.5;" width="150" x="191" y="275"/><ellipse cx="213.65" cy="291" fill="#ADD1B2" rx="11" ry="11" style="stroke: #A80036; stroke-width: 1.0;"/><path d="M216.6188,296.6406 Q216.0406,296.9375 215.4,297.0781 Q214.7594,297.2344 214.0563,297.2344 Q211.5563,297.2344 210.2281,295.5938 Q208.9156,293.9375 208.9156,290.8125 Q208.9156,287.6875 210.2281,286.0313 Q211.5563,284.375 214.0563,284.375 Q214.7594,284.375 215.4,284.5313 Q216.0563,284.6875 216.6188,284.9844 L216.6188,287.7031 Q215.9938,287.125 215.4,286.8594 Q214.8063,286.5781 214.1813,286.5781 Q212.8375,286.5781 212.15,287.6563 Q211.4625,288.7188 211.4625,290.8125 Q211.4625,292.9063 212.15,293.9844 Q212.8375,295.0469 214.1813,295.0469 Q214.8063,295.0469 215.4,294.7813 Q215.9938,294.5 216.6188,293.9219 L216.6188,296.6406 Z "/><text fill="#000000" font-family="sans-serif" font-size="12" lengthAdjust="spacingAndGlyphs" textLength="101" x="229.35" y="295.1543">ModuleInterface</text><line style="stroke: #A80036; stroke-width: 1.5;" x1="192" x2="340" y1="307" y2="307"/><line style="stroke: #A80036; stroke-width: 1.5;" x1="192" x2="340" y1="315" y2="315"/><!--MD5=[b0038aa483aa31042202600f889305b0]
reverse link Executable to ApplicationModule--><path d="M173,82.14 C173,97.12 173,113.93 173,128.87 " fill="none" id="Executable&lt;-ApplicationModule" style="stroke: #A80036; stroke-width: 1.0;"/><polygon fill="#FFFFFF" points="173,69.01,169,75.01,173,81.01,177,75.01,173,69.01" style="stroke: #A80036; stroke-width: 1.0;"/><text fill="#000000" font-family="sans-serif" font-size="13" lengthAdjust="spacingAndGlyphs" textLength="23" x="147.6281" y="88.9503">1..*</text><text fill="#000000" font-family="sans-serif" font-size="13" lengthAdjust="spacingAndGlyphs" textLength="23" x="148.1672" y="117.8453">0..*</text><!--MD5=[58906a0ee986b370fcb572105533e4a9]
reverse link ApplicationModule to Task--><path d="M133.81,226.25 C121.36,243.17 108.22,261.01 98.17,274.67 " fill="none" id="ApplicationModule&lt;-Task" style="stroke: #A80036; stroke-width: 1.0;"/><polygon fill="#FFFFFF" points="141.85,215.32,135.0708,217.7782,134.7325,224.9813,141.5117,222.5232,141.85,215.32" style="stroke: #A80036; stroke-width: 1.0;"/><text fill="#000000" font-family="sans-serif" font-size="13" lengthAdjust="spacingAndGlyphs" textLength="23" x="112.0527" y="235.4639">1..*</text><text fill="#000000" font-family="sans-serif" font-size="13" lengthAdjust="spacingAndGlyphs" textLength="23" x="76.5521" y="263.9945">0..*</text><!--MD5=[2b2919824ae23810bb4829460669f6f4]
reverse link ApplicationModule to ModuleInterface--><path d="M212.26,225.77 C224.95,242.83 238.38,260.88 248.64,274.67 " fill="none" id="ApplicationModule&lt;-ModuleInterface" style="stroke: #A80036; stroke-width: 1.0;"/><polygon fill="#FFFFFF" points="204.49,215.32,204.8631,222.5214,211.6541,224.9468,211.281,217.7454,204.49,215.32" style="stroke: #A80036; stroke-width: 1.0;"/><text fill="#000000" font-family="sans-serif" font-size="13" lengthAdjust="spacingAndGlyphs" textLength="23" x="184.6759" y="235.4639">1..*</text><text fill="#000000" font-family="sans-serif" font-size="13" lengthAdjust="spacingAndGlyphs" textLength="23" x="218.6054" y="263.9945">0..*</text><!--MD5=[d89a30bea44d88ceb6cfe4c379c16381]
@startuml cac-overview
skinparam MinClassWidth 150
skinparam  class {
    BackgroundColor  #FFFFFF
}

class Executable {
    +application_modules: list[AbstractApplicationModule]
}

class ApplicationModule {
    +consumed_interfaces: ModuleInterface
    +provided_interfaces: ModuleInterface
    +tasks: list[Task]
}

class Task

class ModuleInterface

Executable "1..*" o- - "0..*" ApplicationModule
ApplicationModule "1..*" o- - "0..*" Task
ApplicationModule "1..*" o- - "0..*" ModuleInterface
@enduml

PlantUML version 1.2020.02(Sun Mar 01 11:22:07 CET 2020)
(GPL source distribution)
Java Runtime: OpenJDK Runtime Environment
JVM: OpenJDK 64-Bit Server VM
Java Version: 11.0.26+4-post-Ubuntu-1ubuntu122.04
Operating System: Linux
Default Encoding: UTF-8
Language: en
Country: null
--></g></svg>