<svg width="965" height="386" xmlns="http://www.w3.org/2000/svg" xmlns:xlink="http://www.w3.org/1999/xlink" xml:space="preserve" overflow="hidden"><g transform="translate(-3272 -453)"><rect x="3763" y="695" width="474" height="131" fill="#848B8E"/><text fill="#FFFFFF" font-family="Verdana,Verdana_MSFontService,sans-serif" font-weight="400" font-size="32" transform="matrix(1 0 0 1 3954.89 735)">Other</text><text fill="#FFFFFF" font-family="Verdana,Verdana_MSFontService,sans-serif" font-weight="400" font-size="32" transform="matrix(1 0 0 1 3878.42 773)">communication</text><text fill="#FFFFFF" font-family="Verdana,Verdana_MSFontService,sans-serif" font-weight="400" font-size="32" transform="matrix(1 0 0 1 3949.73 812)">stacks</text><rect x="3272" y="695" width="474" height="131" fill="#848B8E"/><text fill="#FFFFFF" font-family="Verdana,Verdana_MSFontService,sans-serif" font-weight="400" font-size="32" transform="matrix(1 0 0 1 3430.95 735)">AUTOSAR</text><text fill="#FFFFFF" font-family="Verdana,Verdana_MSFontService,sans-serif" font-weight="400" font-size="32" transform="matrix(1 0 0 1 3438.97 773)">Adaptive</text><text fill="#FFFFFF" font-family="Verdana,Verdana_MSFontService,sans-serif" font-weight="400" font-size="32" transform="matrix(1 0 0 1 3467.05 812)">stack</text><rect x="3935" y="453" width="302" height="120" fill="#848B8E"/><text fill="#FFFFFF" font-family="Verdana,Verdana_MSFontService,sans-serif" font-weight="400" font-size="32" transform="matrix(1 0 0 1 4048.57 507)">C++</text><text fill="#FFFFFF" font-family="Verdana,Verdana_MSFontService,sans-serif" font-weight="400" font-size="32" transform="matrix(1 0 0 1 4055.15 545)">App</text><rect x="3935" y="573" width="302" height="12.0001" fill="#FBB900"/><rect x="3272" y="453" width="302" height="120" fill="#848B8E"/><text fill="#FFFFFF" font-family="Verdana,Verdana_MSFontService,sans-serif" font-weight="400" font-size="32" transform="matrix(1 0 0 1 3345.01 507)">AUTOSAR</text><text fill="#FFFFFF" font-family="Verdana,Verdana_MSFontService,sans-serif" font-weight="400" font-size="32" transform="matrix(1 0 0 1 3316.37 545)">Adaptive App</text><rect x="3272" y="573" width="302" height="12.0001" fill="#00B0F0"/><rect x="3603" y="453" width="303" height="120" fill="#848B8E"/><text fill="#FFFFFF" font-family="Verdana,Verdana_MSFontService,sans-serif" font-weight="400" font-size="32" transform="matrix(1 0 0 1 3709.68 507)">ADAS</text><text fill="#FFFFFF" font-family="Verdana,Verdana_MSFontService,sans-serif" font-weight="400" font-size="32" transform="matrix(1 0 0 1 3723.71 545)">App</text><rect x="3603" y="573" width="303" height="12.0001" fill="#EF7C00"/><rect x="3272" y="600" width="965" height="77" fill="#B70032"/><text fill="#FFFFFF" font-family="Verdana,Verdana_MSFontService,sans-serif" font-weight="400" font-size="32" transform="matrix(1 0 0 1 3571.04 652)">Application Framework</text></g></svg>