<svg width="971" height="532" xmlns="http://www.w3.org/2000/svg" xmlns:xlink="http://www.w3.org/1999/xlink" xml:space="preserve" overflow="hidden"><defs><clipPath id="clip0"><rect x="616" y="627" width="971" height="532"/></clipPath></defs><g clip-path="url(#clip0)" transform="translate(-616 -627)"><rect x="616" y="1068" width="971" height="91.0001" fill="#565C5E"/><text fill="#FFFFFF" font-family="Verdana,Verdana_MSFontService,sans-serif" font-weight="400" font-size="37" transform="matrix(1 0 0 1 963.89 1127)">Microprocessor</text><rect x="616" y="985" width="968" height="74.0003" fill="#848B8E"/><text fill="#FFFFFF" font-family="Verdana,Verdana_MSFontService,sans-serif" font-weight="400" font-size="37" transform="matrix(1 0 0 1 1001.04 1036)">Hypervisor</text><rect x="618" y="905" width="965" height="72.9999" fill="#848B8E"/><text fill="#FFFFFF" font-family="Verdana,Verdana_MSFontService,sans-serif" font-weight="400" font-size="37" transform="matrix(1 0 0 1 1073.23 956)">OS</text><rect x="1109" y="765" width="474" height="132" fill="#848B8E"/><text fill="#FFFFFF" font-family="Verdana,Verdana_MSFontService,sans-serif" font-weight="400" font-size="32" transform="matrix(1 0 0 1 1300.39 805)">Other</text><text fill="#FFFFFF" font-family="Verdana,Verdana_MSFontService,sans-serif" font-weight="400" font-size="32" transform="matrix(1 0 0 1 1223.92 843)">communication</text><text fill="#FFFFFF" font-family="Verdana,Verdana_MSFontService,sans-serif" font-weight="400" font-size="32" transform="matrix(1 0 0 1 1295.23 882)">stacks</text><rect x="618" y="765" width="474" height="132" fill="#848B8E"/><text fill="#FFFFFF" font-family="Verdana,Verdana_MSFontService,sans-serif" font-weight="400" font-size="32" transform="matrix(1 0 0 1 776.454 805)">AUTOSAR</text><text fill="#FFFFFF" font-family="Verdana,Verdana_MSFontService,sans-serif" font-weight="400" font-size="32" transform="matrix(1 0 0 1 784.475 843)">Adaptive</text><text fill="#FFFFFF" font-family="Verdana,Verdana_MSFontService,sans-serif" font-weight="400" font-size="32" transform="matrix(1 0 0 1 812.548 882)">stack</text><rect x="1280" y="627" width="303" height="119" fill="#848B8E"/><text fill="#FFFFFF" font-family="Verdana,Verdana_MSFontService,sans-serif" font-weight="400" font-size="32" transform="matrix(1 0 0 1 1394.08 680)">C++</text><text fill="#FFFFFF" font-family="Verdana,Verdana_MSFontService,sans-serif" font-weight="400" font-size="32" transform="matrix(1 0 0 1 1400.65 718)">App</text><rect x="1280" y="746" width="303" height="12.0001" fill="#FBB900"/><rect x="618" y="627" width="302" height="119" fill="#848B8E"/><text fill="#FFFFFF" font-family="Verdana,Verdana_MSFontService,sans-serif" font-weight="400" font-size="32" transform="matrix(1 0 0 1 690.516 680)">AUTOSAR</text><text fill="#FFFFFF" font-family="Verdana,Verdana_MSFontService,sans-serif" font-weight="400" font-size="32" transform="matrix(1 0 0 1 661.87 718)">Adaptive App</text><rect x="618" y="746" width="302" height="12.0001" fill="#00B0F0"/><rect x="949" y="627" width="302" height="119" fill="#848B8E"/><text fill="#FFFFFF" font-family="Verdana,Verdana_MSFontService,sans-serif" font-weight="400" font-size="32" transform="matrix(1 0 0 1 1055.19 680)">ADAS</text><text fill="#FFFFFF" font-family="Verdana,Verdana_MSFontService,sans-serif" font-weight="400" font-size="32" transform="matrix(1 0 0 1 1069.21 718)">App</text><rect x="949" y="746" width="302" height="12.0001" fill="#EF7C00"/></g></svg>